<?xml version="1.0" encoding="UTF-8" standalone="no"?><svg xmlns="http://www.w3.org/2000/svg" xmlns:xlink="http://www.w3.org/1999/xlink" contentScriptType="application/ecmascript" contentStyleType="text/css" height="211px" preserveAspectRatio="none" style="width:243px;height:211px;" version="1.1" viewBox="0 0 243 211" width="243px" zoomAndPan="magnify"><defs><filter height="300%" id="ffamvhd" width="300%" x="-1" y="-1"><feGaussianBlur result="blurOut" stdDeviation="2.0"/><feColorMatrix in="blurOut" result="blurOut2" type="matrix" values="0 0 0 0 0 0 0 0 0 0 0 0 0 0 0 0 0 0 .4 0"/><feOffset dx="4.0" dy="4.0" in="blurOut2" result="blurOut3"/><feBlend in="SourceGraphic" in2="blurOut3" mode="normal"/></filter></defs><g><!--class ValidatedConcept--><rect fill="#FEFECE" filter="url(#ffamvhd)" height="86.4141" style="stroke: #A80036; stroke-width: 1.5;" width="228" x="6" y="8"/><ellipse cx="60.25" cy="24" fill="#ADD1B2" rx="11" ry="11" style="stroke: #A80036; stroke-width: 1.0;"/><path d="M63.2188,29.6406 Q62.6406,29.9375 62,30.0859 Q61.3594,30.2344 60.6563,30.2344 Q58.1563,30.2344 56.8359,28.5859 Q55.5156,26.9375 55.5156,23.8125 Q55.5156,20.6875 56.8359,19.0313 Q58.1563,17.375 60.6563,17.375 Q61.3594,17.375 62.0078,17.5313 Q62.6563,17.6875 63.2188,17.9844 L63.2188,20.7031 Q62.5938,20.125 62,19.8516 Q61.4063,19.5781 60.7813,19.5781 Q59.4375,19.5781 58.75,20.6484 Q58.0625,21.7188 58.0625,23.8125 Q58.0625,25.9063 58.75,26.9766 Q59.4375,28.0469 60.7813,28.0469 Q61.4063,28.0469 62,27.7734 Q62.5938,27.5 63.2188,26.9219 L63.2188,29.6406 Z "/><text fill="#000000" font-family="sans-serif" font-size="12" lengthAdjust="spacingAndGlyphs" textLength="111" x="80.75" y="28.1543">ValidatedConcept</text><line style="stroke: #A80036; stroke-width: 1.5;" x1="7" x2="233" y1="40" y2="40"/><line style="stroke: #A80036; stroke-width: 1.5;" x1="7" x2="233" y1="48" y2="48"/><ellipse cx="17" cy="59.9023" fill="#84BE84" rx="3" ry="3" style="stroke: #038048; stroke-width: 1.0;"/><text fill="#000000" font-family="sans-serif" font-size="11" lengthAdjust="spacingAndGlyphs" textLength="202" x="26" y="62.2104">void setPropertyValue(string,string)</text><ellipse cx="17" cy="72.707" fill="#84BE84" rx="3" ry="3" style="stroke: #038048; stroke-width: 1.0;"/><text fill="#000000" font-family="sans-serif" font-size="11" lengthAdjust="spacingAndGlyphs" textLength="187" x="26" y="75.0151">void addArrayValue(string,string)</text><ellipse cx="17" cy="85.5117" fill="#84BE84" rx="3" ry="3" style="stroke: #038048; stroke-width: 1.0;"/><text fill="#000000" font-family="sans-serif" font-size="11" lengthAdjust="spacingAndGlyphs" textLength="79" x="26" y="87.8198">void validate()</text><!--class Concept--><rect fill="#FEFECE" filter="url(#ffamvhd)" height="48" style="stroke: #A80036; stroke-width: 1.5;" width="84" x="78.5" y="154"/><ellipse cx="93.5" cy="170" fill="#ADD1B2" rx="11" ry="11" style="stroke: #A80036; stroke-width: 1.0;"/><path d="M96.4688,175.6406 Q95.8906,175.9375 95.25,176.0859 Q94.6094,176.2344 93.9063,176.2344 Q91.4063,176.2344 90.0859,174.5859 Q88.7656,172.9375 88.7656,169.8125 Q88.7656,166.6875 90.0859,165.0313 Q91.4063,163.375 93.9063,163.375 Q94.6094,163.375 95.2578,163.5313 Q95.9063,163.6875 96.4688,163.9844 L96.4688,166.7031 Q95.8438,166.125 95.25,165.8516 Q94.6563,165.5781 94.0313,165.5781 Q92.6875,165.5781 92,166.6484 Q91.3125,167.7188 91.3125,169.8125 Q91.3125,171.9063 92,172.9766 Q92.6875,174.0469 94.0313,174.0469 Q94.6563,174.0469 95.25,173.7734 Q95.8438,173.5 96.4688,172.9219 L96.4688,175.6406 Z "/><text fill="#000000" font-family="sans-serif" font-size="12" lengthAdjust="spacingAndGlyphs" textLength="52" x="107.5" y="174.1543">Concept</text><line style="stroke: #A80036; stroke-width: 1.5;" x1="79.5" x2="161.5" y1="186" y2="186"/><line style="stroke: #A80036; stroke-width: 1.5;" x1="79.5" x2="161.5" y1="194" y2="194"/><path d="M120,94.319 C120,106.869 120,120.6347 120,133.2718 " fill="none" style="stroke: #A80036; stroke-width: 1.0;"/><polygon fill="none" points="127,133.6717,120,153.6717,113,133.6717,127,133.6717" style="stroke: #A80036; stroke-width: 1.0;"/></g></svg>