<?xml version="1.0" encoding="UTF-8" standalone="no"?><svg xmlns="http://www.w3.org/2000/svg" xmlns:xlink="http://www.w3.org/1999/xlink" contentScriptType="application/ecmascript" contentStyleType="text/css" height="215px" preserveAspectRatio="none" style="width:469px;height:215px;" version="1.1" viewBox="0 0 469 215" width="469px" zoomAndPan="magnify"><defs/><g><!--class AssetRegistry--><rect fill="#F8FAFA" height="102.2031" rx="1" ry="1" style="stroke: #E3ECEC; stroke-width: 1.5;" width="462" x="6" y="8"/><ellipse cx="199.75" cy="22" fill="#FFFFFF" rx="9" ry="9" style="stroke: #E3ECEC; stroke-width: 1.0;"/><path d="M201.0313,25.2969 Q200.6875,25.4688 200.3125,25.5547 Q199.9375,25.6406 199.5156,25.6406 Q198.0469,25.6406 197.2734,24.6719 Q196.5,23.7031 196.5,21.8594 Q196.5,20.0156 197.2734,19.0469 Q198.0469,18.0781 199.5156,18.0781 Q199.9375,18.0781 200.3203,18.1641 Q200.7031,18.25 201.0313,18.4219 L201.0313,20.0313 Q200.6563,19.6875 200.3047,19.5313 Q199.9531,19.375 199.5938,19.375 Q198.7969,19.375 198.3906,20 Q197.9844,20.625 197.9844,21.8594 Q197.9844,23.0938 198.3906,23.7188 Q198.7969,24.3438 199.5938,24.3438 Q199.9531,24.3438 200.3047,24.1875 Q200.6563,24.0313 201.0313,23.6875 L201.0313,25.2969 Z "/><text fill="#19273C" font-family="Open Sans" font-size="10" lengthAdjust="spacingAndGlyphs" textLength="67" x="217.25" y="25.4619">AssetRegistry</text><line style="stroke: #E3ECEC; stroke-width: 1.5;" x1="7" x2="467" y1="36" y2="36"/><line style="stroke: #E3ECEC; stroke-width: 1.5;" x1="7" x2="467" y1="44" y2="44"/><ellipse cx="16" cy="55.3203" fill="#84BE84" rx="2" ry="2" style="stroke: #038048; stroke-width: 1.0;"/><text fill="#19273C" font-family="Open Sans" font-size="10" lengthAdjust="spacingAndGlyphs" textLength="394" x="24" y="57.2822">Promise getAllAssetRegistries(SecurityContext,ModelManager,Factory,Serializer)</text><ellipse cx="16" cy="66.9609" fill="#84BE84" rx="2" ry="2" style="stroke: #038048; stroke-width: 1.0;"/><text fill="#19273C" font-family="Open Sans" font-size="10" lengthAdjust="spacingAndGlyphs" textLength="406" x="24" y="68.9229">Promise getAssetRegistry(SecurityContext,string,ModelManager,Factory,Serializer)</text><ellipse cx="16" cy="78.6016" fill="#84BE84" rx="2" ry="2" style="stroke: #038048; stroke-width: 1.0;"/><text fill="#19273C" font-family="Open Sans" font-size="10" lengthAdjust="spacingAndGlyphs" textLength="418" x="24" y="80.5635">Promise existsAssetRegistry(SecurityContext,string,ModelManager,Factory,Serializer)</text><ellipse cx="16" cy="90.2422" fill="#84BE84" rx="2" ry="2" style="stroke: #038048; stroke-width: 1.0;"/><text fill="#19273C" font-family="Open Sans" font-size="10" lengthAdjust="spacingAndGlyphs" textLength="438" x="24" y="92.2041">Promise addAssetRegistry(SecurityContext,string,string,ModelManager,Factory,Serializer)</text><ellipse cx="16" cy="101.8828" fill="#84BE84" rx="2" ry="2" style="stroke: #038048; stroke-width: 1.0;"/><text fill="#19273C" font-family="Open Sans" font-size="10" lengthAdjust="spacingAndGlyphs" textLength="388" x="24" y="103.8447">void constructor(string,string,SecurityContext,ModelManager,Factory,Serializer)</text><!--class Registry--><rect fill="#F8FAFA" height="44" rx="1" ry="1" style="stroke: #E3ECEC; stroke-width: 1.5;" width="68" x="202.5" y="170"/><ellipse cx="215.5" cy="184" fill="#FFFFFF" rx="9" ry="9" style="stroke: #E3ECEC; stroke-width: 1.0;"/><path d="M216.7813,187.2969 Q216.4375,187.4688 216.0625,187.5547 Q215.6875,187.6406 215.2656,187.6406 Q213.7969,187.6406 213.0234,186.6719 Q212.25,185.7031 212.25,183.8594 Q212.25,182.0156 213.0234,181.0469 Q213.7969,180.0781 215.2656,180.0781 Q215.6875,180.0781 216.0703,180.1641 Q216.4531,180.25 216.7813,180.4219 L216.7813,182.0313 Q216.4063,181.6875 216.0547,181.5313 Q215.7031,181.375 215.3438,181.375 Q214.5469,181.375 214.1406,182 Q213.7344,182.625 213.7344,183.8594 Q213.7344,185.0938 214.1406,185.7188 Q214.5469,186.3438 215.3438,186.3438 Q215.7031,186.3438 216.0547,186.1875 Q216.4063,186.0313 216.7813,185.6875 L216.7813,187.2969 Z "/><text fill="#19273C" font-family="Open Sans" font-size="10" lengthAdjust="spacingAndGlyphs" textLength="40" x="227.5" y="187.4619">Registry</text><line style="stroke: #E3ECEC; stroke-width: 1.5;" x1="203.5" x2="269.5" y1="198" y2="198"/><line style="stroke: #E3ECEC; stroke-width: 1.5;" x1="203.5" x2="269.5" y1="206" y2="206"/><path d="M236.5,110.273 C236.5,123.1708 236.5,136.9022 236.5,149.3131 " fill="none" style="stroke: #3C6DF0; stroke-width: 1.0;"/><polygon fill="none" points="243.5,149.7615,236.5,169.7614,229.5,149.7614,243.5,149.7615" style="stroke: #3C6DF0; stroke-width: 1.0;"/></g></svg>