<?xml version="1.0" encoding="UTF-8" standalone="no"?><svg xmlns="http://www.w3.org/2000/svg" xmlns:xlink="http://www.w3.org/1999/xlink" contentScriptType="application/ecmascript" contentStyleType="text/css" height="187px" preserveAspectRatio="none" style="width:174px;height:187px;" version="1.1" viewBox="0 0 174 187" width="174px" zoomAndPan="magnify"><defs><filter height="300%" id="fbzwou2" width="300%" x="-1" y="-1"><feGaussianBlur result="blurOut" stdDeviation="2.0"/><feColorMatrix in="blurOut" result="blurOut2" type="matrix" values="0 0 0 0 0 0 0 0 0 0 0 0 0 0 0 0 0 0 .4 0"/><feOffset dx="4.0" dy="4.0" in="blurOut2" result="blurOut3"/><feBlend in="SourceGraphic" in2="blurOut3" mode="normal"/></filter></defs><g><!--class BaseException--><rect fill="#FEFECE" filter="url(#fbzwou2)" height="60.8047" style="stroke: #A80036; stroke-width: 1.5;" width="159" x="6" y="8.5"/><ellipse cx="36.75" cy="24.5" fill="#ADD1B2" rx="11" ry="11" style="stroke: #A80036; stroke-width: 1.0;"/><path d="M39.7188,30.1406 Q39.1406,30.4375 38.5,30.5859 Q37.8594,30.7344 37.1563,30.7344 Q34.6563,30.7344 33.3359,29.0859 Q32.0156,27.4375 32.0156,24.3125 Q32.0156,21.1875 33.3359,19.5313 Q34.6563,17.875 37.1563,17.875 Q37.8594,17.875 38.5078,18.0313 Q39.1563,18.1875 39.7188,18.4844 L39.7188,21.2031 Q39.0938,20.625 38.5,20.3516 Q37.9063,20.0781 37.2813,20.0781 Q35.9375,20.0781 35.25,21.1484 Q34.5625,22.2188 34.5625,24.3125 Q34.5625,26.4063 35.25,27.4766 Q35.9375,28.5469 37.2813,28.5469 Q37.9063,28.5469 38.5,28.2734 Q39.0938,28 39.7188,27.4219 L39.7188,30.1406 Z "/><text fill="#000000" font-family="sans-serif" font-size="12" lengthAdjust="spacingAndGlyphs" textLength="92" x="54.25" y="28.6543">BaseException</text><line style="stroke: #A80036; stroke-width: 1.5;" x1="7" x2="164" y1="40.5" y2="40.5"/><line style="stroke: #A80036; stroke-width: 1.5;" x1="7" x2="164" y1="48.5" y2="48.5"/><ellipse cx="17" cy="60.4023" fill="#84BE84" rx="3" ry="3" style="stroke: #038048; stroke-width: 1.0;"/><text fill="#000000" font-family="sans-serif" font-size="11" lengthAdjust="spacingAndGlyphs" textLength="133" x="26" y="62.7104">void constructor(string)</text><!--class Error--><rect fill="#FEFECE" filter="url(#fbzwou2)" height="48" style="stroke: #A80036; stroke-width: 1.5;" width="63" x="54" y="130"/><ellipse cx="69" cy="146" fill="#ADD1B2" rx="11" ry="11" style="stroke: #A80036; stroke-width: 1.0;"/><path d="M71.9688,151.6406 Q71.3906,151.9375 70.75,152.0859 Q70.1094,152.2344 69.4063,152.2344 Q66.9063,152.2344 65.5859,150.5859 Q64.2656,148.9375 64.2656,145.8125 Q64.2656,142.6875 65.5859,141.0313 Q66.9063,139.375 69.4063,139.375 Q70.1094,139.375 70.7578,139.5313 Q71.4063,139.6875 71.9688,139.9844 L71.9688,142.7031 Q71.3438,142.125 70.75,141.8516 Q70.1563,141.5781 69.5313,141.5781 Q68.1875,141.5781 67.5,142.6484 Q66.8125,143.7188 66.8125,145.8125 Q66.8125,147.9063 67.5,148.9766 Q68.1875,150.0469 69.5313,150.0469 Q70.1563,150.0469 70.75,149.7734 Q71.3438,149.5 71.9688,148.9219 L71.9688,151.6406 Z "/><text fill="#000000" font-family="sans-serif" font-size="12" lengthAdjust="spacingAndGlyphs" textLength="31" x="83" y="150.1543">Error</text><line style="stroke: #A80036; stroke-width: 1.5;" x1="55" x2="116" y1="162" y2="162"/><line style="stroke: #A80036; stroke-width: 1.5;" x1="55" x2="116" y1="170" y2="170"/><path d="M85.25,69.689 C85.25,81.9011 85.25,96.2881 85.25,109.6388 " fill="none" style="stroke: #A80036; stroke-width: 1.0;"/><polygon fill="none" points="92.2501,109.9284,85.25,129.9284,78.2501,109.9283,92.2501,109.9284" style="stroke: #A80036; stroke-width: 1.0;"/></g></svg>