<?xml version="1.0" encoding="UTF-8" standalone="no"?><svg xmlns="http://www.w3.org/2000/svg" xmlns:xlink="http://www.w3.org/1999/xlink" contentScriptType="application/ecmascript" contentStyleType="text/css" height="343px" preserveAspectRatio="none" style="width:785px;height:343px;" version="1.1" viewBox="0 0 785 343" width="785px" zoomAndPan="magnify"><defs/><g><!--class AssetRegistry--><rect fill="#F8FAFA" height="102.2031" rx="1" ry="1" style="stroke: #E3ECEC; stroke-width: 1.5;" width="462" x="6.5" y="72"/><ellipse cx="200.25" cy="86" fill="#FFFFFF" rx="9" ry="9" style="stroke: #E3ECEC; stroke-width: 1.0;"/><path d="M201.5313,89.2969 Q201.1875,89.4688 200.8125,89.5547 Q200.4375,89.6406 200.0156,89.6406 Q198.5469,89.6406 197.7734,88.6719 Q197,87.7031 197,85.8594 Q197,84.0156 197.7734,83.0469 Q198.5469,82.0781 200.0156,82.0781 Q200.4375,82.0781 200.8203,82.1641 Q201.2031,82.25 201.5313,82.4219 L201.5313,84.0313 Q201.1563,83.6875 200.8047,83.5313 Q200.4531,83.375 200.0938,83.375 Q199.2969,83.375 198.8906,84 Q198.4844,84.625 198.4844,85.8594 Q198.4844,87.0938 198.8906,87.7188 Q199.2969,88.3438 200.0938,88.3438 Q200.4531,88.3438 200.8047,88.1875 Q201.1563,88.0313 201.5313,87.6875 L201.5313,89.2969 Z "/><text fill="#19273C" font-family="Open Sans" font-size="10" lengthAdjust="spacingAndGlyphs" textLength="67" x="217.75" y="89.4619">AssetRegistry</text><line style="stroke: #E3ECEC; stroke-width: 1.5;" x1="7.5" x2="467.5" y1="100" y2="100"/><line style="stroke: #E3ECEC; stroke-width: 1.5;" x1="7.5" x2="467.5" y1="108" y2="108"/><ellipse cx="16.5" cy="119.3203" fill="#84BE84" rx="2" ry="2" style="stroke: #038048; stroke-width: 1.0;"/><text fill="#19273C" font-family="Open Sans" font-size="10" lengthAdjust="spacingAndGlyphs" textLength="394" x="24.5" y="121.2822">Promise getAllAssetRegistries(SecurityContext,ModelManager,Factory,Serializer)</text><ellipse cx="16.5" cy="130.9609" fill="#84BE84" rx="2" ry="2" style="stroke: #038048; stroke-width: 1.0;"/><text fill="#19273C" font-family="Open Sans" font-size="10" lengthAdjust="spacingAndGlyphs" textLength="406" x="24.5" y="132.9229">Promise getAssetRegistry(SecurityContext,string,ModelManager,Factory,Serializer)</text><ellipse cx="16.5" cy="142.6016" fill="#84BE84" rx="2" ry="2" style="stroke: #038048; stroke-width: 1.0;"/><text fill="#19273C" font-family="Open Sans" font-size="10" lengthAdjust="spacingAndGlyphs" textLength="418" x="24.5" y="144.5635">Promise existsAssetRegistry(SecurityContext,string,ModelManager,Factory,Serializer)</text><ellipse cx="16.5" cy="154.2422" fill="#84BE84" rx="2" ry="2" style="stroke: #038048; stroke-width: 1.0;"/><text fill="#19273C" font-family="Open Sans" font-size="10" lengthAdjust="spacingAndGlyphs" textLength="438" x="24.5" y="156.2041">Promise addAssetRegistry(SecurityContext,string,string,ModelManager,Factory,Serializer)</text><ellipse cx="16.5" cy="165.8828" fill="#84BE84" rx="2" ry="2" style="stroke: #038048; stroke-width: 1.0;"/><text fill="#19273C" font-family="Open Sans" font-size="10" lengthAdjust="spacingAndGlyphs" textLength="388" x="24.5" y="167.8447">void constructor(string,string,SecurityContext,ModelManager,Factory,Serializer)</text><!--class Registry--><rect fill="#F8FAFA" height="44" rx="1" ry="1" style="stroke: #E3ECEC; stroke-width: 1.5;" width="68" x="203" y="298"/><ellipse cx="216" cy="312" fill="#FFFFFF" rx="9" ry="9" style="stroke: #E3ECEC; stroke-width: 1.0;"/><path d="M217.2813,315.2969 Q216.9375,315.4688 216.5625,315.5547 Q216.1875,315.6406 215.7656,315.6406 Q214.2969,315.6406 213.5234,314.6719 Q212.75,313.7031 212.75,311.8594 Q212.75,310.0156 213.5234,309.0469 Q214.2969,308.0781 215.7656,308.0781 Q216.1875,308.0781 216.5703,308.1641 Q216.9531,308.25 217.2813,308.4219 L217.2813,310.0313 Q216.9063,309.6875 216.5547,309.5313 Q216.2031,309.375 215.8438,309.375 Q215.0469,309.375 214.6406,310 Q214.2344,310.625 214.2344,311.8594 Q214.2344,313.0938 214.6406,313.7188 Q215.0469,314.3438 215.8438,314.3438 Q216.2031,314.3438 216.5547,314.1875 Q216.9063,314.0313 217.2813,313.6875 L217.2813,315.2969 Z "/><text fill="#19273C" font-family="Open Sans" font-size="10" lengthAdjust="spacingAndGlyphs" textLength="40" x="228" y="315.4619">Registry</text><line style="stroke: #E3ECEC; stroke-width: 1.5;" x1="204" x2="270" y1="326" y2="326"/><line style="stroke: #E3ECEC; stroke-width: 1.5;" x1="204" x2="270" y1="334" y2="334"/><!--class BusinessNetworkConnection--><rect fill="#F8FAFA" height="230.25" rx="1" ry="1" style="stroke: #E3ECEC; stroke-width: 1.5;" width="281" x="503.75" y="8"/><ellipse cx="571.5" cy="22" fill="#FFFFFF" rx="9" ry="9" style="stroke: #E3ECEC; stroke-width: 1.0;"/><path d="M572.7813,25.2969 Q572.4375,25.4688 572.0625,25.5547 Q571.6875,25.6406 571.2656,25.6406 Q569.7969,25.6406 569.0234,24.6719 Q568.25,23.7031 568.25,21.8594 Q568.25,20.0156 569.0234,19.0469 Q569.7969,18.0781 571.2656,18.0781 Q571.6875,18.0781 572.0703,18.1641 Q572.4531,18.25 572.7813,18.4219 L572.7813,20.0313 Q572.4063,19.6875 572.0547,19.5313 Q571.7031,19.375 571.3438,19.375 Q570.5469,19.375 570.1406,20 Q569.7344,20.625 569.7344,21.8594 Q569.7344,23.0938 570.1406,23.7188 Q570.5469,24.3438 571.3438,24.3438 Q571.7031,24.3438 572.0547,24.1875 Q572.4063,24.0313 572.7813,23.6875 L572.7813,25.2969 Z "/><text fill="#19273C" font-family="Open Sans" font-size="10" lengthAdjust="spacingAndGlyphs" textLength="138" x="589" y="25.4619">BusinessNetworkConnection</text><line style="stroke: #E3ECEC; stroke-width: 1.5;" x1="504.75" x2="783.75" y1="36" y2="36"/><line style="stroke: #E3ECEC; stroke-width: 1.5;" x1="504.75" x2="783.75" y1="44" y2="44"/><ellipse cx="513.75" cy="55.3203" fill="#84BE84" rx="2" ry="2" style="stroke: #038048; stroke-width: 1.0;"/><text fill="#19273C" font-family="Open Sans" font-size="10" lengthAdjust="spacingAndGlyphs" textLength="192" x="521.75" y="57.2822">void constructor(Object,Object,boolean)</text><ellipse cx="513.75" cy="66.9609" fill="#84BE84" rx="2" ry="2" style="stroke: #038048; stroke-width: 1.0;"/><text fill="#19273C" font-family="Open Sans" font-size="10" lengthAdjust="spacingAndGlyphs" textLength="239" x="521.75" y="68.9229">BusinessNetworkDefinition getBusinessNetwork()</text><ellipse cx="513.75" cy="78.6016" fill="#84BE84" rx="2" ry="2" style="stroke: #038048; stroke-width: 1.0;"/><text fill="#19273C" font-family="Open Sans" font-size="10" lengthAdjust="spacingAndGlyphs" textLength="232" x="521.75" y="80.5635">Promise getAllAssetRegistries(SecurityContext)</text><ellipse cx="513.75" cy="90.2422" fill="#84BE84" rx="2" ry="2" style="stroke: #038048; stroke-width: 1.0;"/><text fill="#19273C" font-family="Open Sans" font-size="10" lengthAdjust="spacingAndGlyphs" textLength="161" x="521.75" y="92.2041">Promise getAssetRegistry(string)</text><ellipse cx="513.75" cy="101.8828" fill="#84BE84" rx="2" ry="2" style="stroke: #038048; stroke-width: 1.0;"/><text fill="#19273C" font-family="Open Sans" font-size="10" lengthAdjust="spacingAndGlyphs" textLength="173" x="521.75" y="103.8447">Promise existsAssetRegistry(string)</text><ellipse cx="513.75" cy="113.5234" fill="#84BE84" rx="2" ry="2" style="stroke: #038048; stroke-width: 1.0;"/><text fill="#19273C" font-family="Open Sans" font-size="10" lengthAdjust="spacingAndGlyphs" textLength="193" x="521.75" y="115.4854">Promise addAssetRegistry(string,string)</text><ellipse cx="513.75" cy="125.1641" fill="#84BE84" rx="2" ry="2" style="stroke: #038048; stroke-width: 1.0;"/><text fill="#19273C" font-family="Open Sans" font-size="10" lengthAdjust="spacingAndGlyphs" textLength="257" x="521.75" y="127.126">Promise getAllParticipantRegistries(SecurityContext)</text><ellipse cx="513.75" cy="136.8047" fill="#84BE84" rx="2" ry="2" style="stroke: #038048; stroke-width: 1.0;"/><text fill="#19273C" font-family="Open Sans" font-size="10" lengthAdjust="spacingAndGlyphs" textLength="186" x="521.75" y="138.7666">Promise getParticipantRegistry(string)</text><ellipse cx="513.75" cy="148.4453" fill="#84BE84" rx="2" ry="2" style="stroke: #038048; stroke-width: 1.0;"/><text fill="#19273C" font-family="Open Sans" font-size="10" lengthAdjust="spacingAndGlyphs" textLength="218" x="521.75" y="150.4072">Promise addParticipantRegistry(string,string)</text><ellipse cx="513.75" cy="160.0859" fill="#84BE84" rx="2" ry="2" style="stroke: #038048; stroke-width: 1.0;"/><text fill="#19273C" font-family="Open Sans" font-size="10" lengthAdjust="spacingAndGlyphs" textLength="162" x="521.75" y="162.0479">Promise getTransactionRegistry()</text><ellipse cx="513.75" cy="171.7266" fill="#84BE84" rx="2" ry="2" style="stroke: #038048; stroke-width: 1.0;"/><text fill="#19273C" font-family="Open Sans" font-size="10" lengthAdjust="spacingAndGlyphs" textLength="206" x="521.75" y="173.6885">Promise connect(string,string,string,string)</text><ellipse cx="513.75" cy="183.3672" fill="#84BE84" rx="2" ry="2" style="stroke: #038048; stroke-width: 1.0;"/><text fill="#19273C" font-family="Open Sans" font-size="10" lengthAdjust="spacingAndGlyphs" textLength="102" x="521.75" y="185.3291">Promise disconnect()</text><ellipse cx="513.75" cy="195.0078" fill="#84BE84" rx="2" ry="2" style="stroke: #038048; stroke-width: 1.0;"/><text fill="#19273C" font-family="Open Sans" font-size="10" lengthAdjust="spacingAndGlyphs" textLength="184" x="521.75" y="196.9697">Promise submitTransaction(Resource)</text><ellipse cx="513.75" cy="206.6484" fill="#84BE84" rx="2" ry="2" style="stroke: #038048; stroke-width: 1.0;"/><text fill="#19273C" font-family="Open Sans" font-size="10" lengthAdjust="spacingAndGlyphs" textLength="71" x="521.75" y="208.6104">Promise ping()</text><ellipse cx="513.75" cy="218.2891" fill="#84BE84" rx="2" ry="2" style="stroke: #038048; stroke-width: 1.0;"/><text fill="#19273C" font-family="Open Sans" font-size="10" lengthAdjust="spacingAndGlyphs" textLength="212" x="521.75" y="220.251">Promise issueIdentity(string,object,boolean)</text><ellipse cx="513.75" cy="229.9297" fill="#84BE84" rx="2" ry="2" style="stroke: #038048; stroke-width: 1.0;"/><text fill="#19273C" font-family="Open Sans" font-size="10" lengthAdjust="spacingAndGlyphs" textLength="148" x="521.75" y="231.8916">Promise revokeIdentity(string)</text><!--class EventEmitter--><rect fill="#F8FAFA" height="44" rx="1" ry="1" style="stroke: #E3ECEC; stroke-width: 1.5;" width="94" x="597" y="298"/><ellipse cx="610" cy="312" fill="#FFFFFF" rx="9" ry="9" style="stroke: #E3ECEC; stroke-width: 1.0;"/><path d="M611.2813,315.2969 Q610.9375,315.4688 610.5625,315.5547 Q610.1875,315.6406 609.7656,315.6406 Q608.2969,315.6406 607.5234,314.6719 Q606.75,313.7031 606.75,311.8594 Q606.75,310.0156 607.5234,309.0469 Q608.2969,308.0781 609.7656,308.0781 Q610.1875,308.0781 610.5703,308.1641 Q610.9531,308.25 611.2813,308.4219 L611.2813,310.0313 Q610.9063,309.6875 610.5547,309.5313 Q610.2031,309.375 609.8438,309.375 Q609.0469,309.375 608.6406,310 Q608.2344,310.625 608.2344,311.8594 Q608.2344,313.0938 608.6406,313.7188 Q609.0469,314.3438 609.8438,314.3438 Q610.2031,314.3438 610.5547,314.1875 Q610.9063,314.0313 611.2813,313.6875 L611.2813,315.2969 Z "/><text fill="#19273C" font-family="Open Sans" font-size="10" lengthAdjust="spacingAndGlyphs" textLength="66" x="622" y="315.4619">EventEmitter</text><line style="stroke: #E3ECEC; stroke-width: 1.5;" x1="598" x2="690" y1="326" y2="326"/><line style="stroke: #E3ECEC; stroke-width: 1.5;" x1="598" x2="690" y1="334" y2="334"/><path d="M237,174.217 C237,206.207 237,247.1555 237,277.3367 " fill="none" style="stroke: #3C6DF0; stroke-width: 1.0;"/><polygon fill="none" points="244,277.5592,237,297.5592,230,277.5591,244,277.5592" style="stroke: #3C6DF0; stroke-width: 1.0;"/><path d="M644,238.278 C644,252.2589 644,265.7648 644,277.5994 " fill="none" style="stroke: #3C6DF0; stroke-width: 1.0;"/><polygon fill="none" points="651,277.9826,644,297.9825,637,277.9825,651,277.9826" style="stroke: #3C6DF0; stroke-width: 1.0;"/></g></svg>