<?xml version="1.0" encoding="UTF-8" standalone="no"?><svg xmlns="http://www.w3.org/2000/svg" xmlns:xlink="http://www.w3.org/1999/xlink" contentScriptType="application/ecmascript" contentStyleType="text/css" height="94px" preserveAspectRatio="none" style="width:246px;height:94px;" version="1.1" viewBox="0 0 246 94" width="246px" zoomAndPan="magnify"><defs/><g><!--class BusinessNetworkMetadata--><rect fill="#F8FAFA" height="85.25" rx="1" ry="1" style="stroke: #E3ECEC; stroke-width: 1.5;" width="239" x="6" y="8.5"/><ellipse cx="21" cy="24.5" fill="#FFFFFF" rx="11" ry="11" style="stroke: #E3ECEC; stroke-width: 1.0;"/><path d="M23.4531,30.1563 Q22.9063,30.4375 22.3047,30.5859 Q21.7031,30.7344 21.0313,30.7344 Q18.6719,30.7344 17.4297,29.1719 Q16.1875,27.6094 16.1875,24.6719 Q16.1875,21.7344 17.4297,20.1797 Q18.6719,18.625 21.0313,18.625 Q21.7031,18.625 22.3125,18.7656 Q22.9219,18.9063 23.4531,19.1875 L23.4531,21.75 Q22.8594,21.2031 22.2969,20.9453 Q21.7344,20.6875 21.1406,20.6875 Q19.875,20.6875 19.2344,21.6953 Q18.5938,22.7031 18.5938,24.6719 Q18.5938,26.6406 19.2344,27.6484 Q19.875,28.6563 21.1406,28.6563 Q21.7344,28.6563 22.2969,28.3984 Q22.8594,28.1406 23.4531,27.5938 L23.4531,30.1563 Z "/><text fill="#19273C" font-family="sans-serif" font-size="16" lengthAdjust="spacingAndGlyphs" textLength="207" x="35" y="30.0391">BusinessNetworkMetadata</text><line style="stroke: #E3ECEC; stroke-width: 1.5;" x1="7" x2="244" y1="40.5" y2="40.5"/><line style="stroke: #E3ECEC; stroke-width: 1.5;" x1="7" x2="244" y1="48.5" y2="48.5"/><ellipse cx="17" cy="62.8125" fill="#84BE84" rx="3" ry="3" style="stroke: #038048; stroke-width: 1.0;"/><text fill="#19273C" font-family="sans-serif" font-size="16" lengthAdjust="spacingAndGlyphs" textLength="188" x="26" y="67.3516">void constructor(String)</text><ellipse cx="17" cy="81.4375" fill="#84BE84" rx="3" ry="3" style="stroke: #038048; stroke-width: 1.0;"/><text fill="#19273C" font-family="sans-serif" font-size="16" lengthAdjust="spacingAndGlyphs" textLength="155" x="26" y="85.9766">String getREADME()</text></g></svg>