<?xml version="1.0" encoding="UTF-8" standalone="no"?><svg xmlns="http://www.w3.org/2000/svg" xmlns:xlink="http://www.w3.org/1999/xlink" contentScriptType="application/ecmascript" contentStyleType="text/css" height="181px" preserveAspectRatio="none" style="width:330px;height:181px;" version="1.1" viewBox="0 0 330 181" width="330px" zoomAndPan="magnify"><defs/><g><!--class BusinessNetworkDefinition--><rect fill="#F8FAFA" height="172.0469" rx="1" ry="1" style="stroke: #E3ECEC; stroke-width: 1.5;" width="323" x="6" y="8"/><ellipse cx="99.25" cy="22" fill="#FFFFFF" rx="9" ry="9" style="stroke: #E3ECEC; stroke-width: 1.0;"/><path d="M100.5313,25.2969 Q100.1875,25.4688 99.8125,25.5547 Q99.4375,25.6406 99.0156,25.6406 Q97.5469,25.6406 96.7734,24.6719 Q96,23.7031 96,21.8594 Q96,20.0156 96.7734,19.0469 Q97.5469,18.0781 99.0156,18.0781 Q99.4375,18.0781 99.8203,18.1641 Q100.2031,18.25 100.5313,18.4219 L100.5313,20.0313 Q100.1563,19.6875 99.8047,19.5313 Q99.4531,19.375 99.0938,19.375 Q98.2969,19.375 97.8906,20 Q97.4844,20.625 97.4844,21.8594 Q97.4844,23.0938 97.8906,23.7188 Q98.2969,24.3438 99.0938,24.3438 Q99.4531,24.3438 99.8047,24.1875 Q100.1563,24.0313 100.5313,23.6875 L100.5313,25.2969 Z "/><text fill="#19273C" font-family="Open Sans" font-size="10" lengthAdjust="spacingAndGlyphs" textLength="129" x="116.75" y="25.4619">BusinessNetworkDefinition</text><line style="stroke: #E3ECEC; stroke-width: 1.5;" x1="7" x2="328" y1="36" y2="36"/><line style="stroke: #E3ECEC; stroke-width: 1.5;" x1="7" x2="328" y1="44" y2="44"/><ellipse cx="16" cy="55.3203" fill="#84BE84" rx="2" ry="2" style="stroke: #038048; stroke-width: 1.0;"/><text fill="#19273C" font-family="Open Sans" font-size="10" lengthAdjust="spacingAndGlyphs" textLength="147" x="24" y="57.2822">void constructor(String,String)</text><ellipse cx="16" cy="66.9609" fill="#84BE84" rx="2" ry="2" style="stroke: #038048; stroke-width: 1.0;"/><text fill="#19273C" font-family="Open Sans" font-size="10" lengthAdjust="spacingAndGlyphs" textLength="99" x="24" y="68.9229">String getIdentifier()</text><ellipse cx="16" cy="78.6016" fill="#84BE84" rx="2" ry="2" style="stroke: #038048; stroke-width: 1.0;"/><text fill="#19273C" font-family="Open Sans" font-size="10" lengthAdjust="spacingAndGlyphs" textLength="86" x="24" y="80.5635">String getName()</text><ellipse cx="16" cy="90.2422" fill="#84BE84" rx="2" ry="2" style="stroke: #038048; stroke-width: 1.0;"/><text fill="#19273C" font-family="Open Sans" font-size="10" lengthAdjust="spacingAndGlyphs" textLength="92" x="24" y="92.2041">String getVersion()</text><ellipse cx="16" cy="101.8828" fill="#84BE84" rx="2" ry="2" style="stroke: #038048; stroke-width: 1.0;"/><text fill="#19273C" font-family="Open Sans" font-size="10" lengthAdjust="spacingAndGlyphs" textLength="110" x="24" y="103.8447">String getDescription()</text><ellipse cx="16" cy="113.5234" fill="#84BE84" rx="2" ry="2" style="stroke: #038048; stroke-width: 1.0;"/><text fill="#19273C" font-family="Open Sans" font-size="10" lengthAdjust="spacingAndGlyphs" textLength="142" x="24" y="115.4854">Promise fromArchive(Buffer)</text><ellipse cx="16" cy="125.1641" fill="#84BE84" rx="2" ry="2" style="stroke: #038048; stroke-width: 1.0;"/><text fill="#19273C" font-family="Open Sans" font-size="10" lengthAdjust="spacingAndGlyphs" textLength="88" x="24" y="127.126">Buffer toArchive()</text><ellipse cx="16" cy="136.8047" fill="#84BE84" rx="2" ry="2" style="stroke: #038048; stroke-width: 1.0;"/><text fill="#19273C" font-family="Open Sans" font-size="10" lengthAdjust="spacingAndGlyphs" textLength="299" x="24" y="138.7666">Promise fromDirectory(String,Object,Object,boolean,boolean)</text><ellipse cx="16" cy="148.4453" fill="#84BE84" rx="2" ry="2" style="stroke: #038048; stroke-width: 1.0;"/><text fill="#19273C" font-family="Open Sans" font-size="10" lengthAdjust="spacingAndGlyphs" textLength="145" x="24" y="150.4072">Introspector getIntrospector()</text><ellipse cx="16" cy="160.0859" fill="#84BE84" rx="2" ry="2" style="stroke: #038048; stroke-width: 1.0;"/><text fill="#19273C" font-family="Open Sans" font-size="10" lengthAdjust="spacingAndGlyphs" textLength="101" x="24" y="162.0479">Factory getFactory()</text><ellipse cx="16" cy="171.7266" fill="#84BE84" rx="2" ry="2" style="stroke: #038048; stroke-width: 1.0;"/><text fill="#19273C" font-family="Open Sans" font-size="10" lengthAdjust="spacingAndGlyphs" textLength="115" x="24" y="173.6885">Serializer getSerializer()</text></g></svg>