<?xml version="1.0" encoding="UTF-8" standalone="no"?><svg xmlns="http://www.w3.org/2000/svg" xmlns:xlink="http://www.w3.org/1999/xlink" contentScriptType="application/ecmascript" contentStyleType="text/css" height="379px" preserveAspectRatio="none" style="width:907px;height:379px;" version="1.1" viewBox="0 0 907 379" width="907px" zoomAndPan="magnify"><defs><filter height="300%" id="fprbuj4" width="300%" x="-1" y="-1"><feGaussianBlur result="blurOut" stdDeviation="2.0"/><feColorMatrix in="blurOut" result="blurOut2" type="matrix" values="0 0 0 0 0 0 0 0 0 0 0 0 0 0 0 0 0 0 .4 0"/><feOffset dx="4.0" dy="4.0" in="blurOut2" result="blurOut3"/><feBlend in="SourceGraphic" in2="blurOut3" mode="normal"/></filter></defs><g><!--class AssetRegistry--><rect fill="#FEFECE" filter="url(#fprbuj4)" height="112.0234" style="stroke: #A80036; stroke-width: 1.5;" width="535" x="6" y="79"/><ellipse cx="226.75" cy="95" fill="#ADD1B2" rx="11" ry="11" style="stroke: #A80036; stroke-width: 1.0;"/><path d="M229.7188,100.6406 Q229.1406,100.9375 228.5,101.0859 Q227.8594,101.2344 227.1563,101.2344 Q224.6563,101.2344 223.3359,99.5859 Q222.0156,97.9375 222.0156,94.8125 Q222.0156,91.6875 223.3359,90.0313 Q224.6563,88.375 227.1563,88.375 Q227.8594,88.375 228.5078,88.5313 Q229.1563,88.6875 229.7188,88.9844 L229.7188,91.7031 Q229.0938,91.125 228.5,90.8516 Q227.9063,90.5781 227.2813,90.5781 Q225.9375,90.5781 225.25,91.6484 Q224.5625,92.7188 224.5625,94.8125 Q224.5625,96.9063 225.25,97.9766 Q225.9375,99.0469 227.2813,99.0469 Q227.9063,99.0469 228.5,98.7734 Q229.0938,98.5 229.7188,97.9219 L229.7188,100.6406 Z "/><text fill="#000000" font-family="sans-serif" font-size="12" lengthAdjust="spacingAndGlyphs" textLength="85" x="247.25" y="99.1543">AssetRegistry</text><line style="stroke: #A80036; stroke-width: 1.5;" x1="7" x2="540" y1="111" y2="111"/><line style="stroke: #A80036; stroke-width: 1.5;" x1="7" x2="540" y1="119" y2="119"/><ellipse cx="17" cy="130.9023" fill="#84BE84" rx="3" ry="3" style="stroke: #038048; stroke-width: 1.0;"/><text fill="#000000" font-family="sans-serif" font-size="11" lengthAdjust="spacingAndGlyphs" textLength="456" x="26" y="133.2104">Promise getAllAssetRegistries(SecurityContext,ModelManager,Factory,Serializer)</text><ellipse cx="17" cy="143.707" fill="#84BE84" rx="3" ry="3" style="stroke: #038048; stroke-width: 1.0;"/><text fill="#000000" font-family="sans-serif" font-size="11" lengthAdjust="spacingAndGlyphs" textLength="469" x="26" y="146.0151">Promise getAssetRegistry(SecurityContext,string,ModelManager,Factory,Serializer)</text><ellipse cx="17" cy="156.5117" fill="#84BE84" rx="3" ry="3" style="stroke: #038048; stroke-width: 1.0;"/><text fill="#000000" font-family="sans-serif" font-size="11" lengthAdjust="spacingAndGlyphs" textLength="485" x="26" y="158.8198">Promise existsAssetRegistry(SecurityContext,string,ModelManager,Factory,Serializer)</text><ellipse cx="17" cy="169.3164" fill="#84BE84" rx="3" ry="3" style="stroke: #038048; stroke-width: 1.0;"/><text fill="#000000" font-family="sans-serif" font-size="11" lengthAdjust="spacingAndGlyphs" textLength="509" x="26" y="171.6245">Promise addAssetRegistry(SecurityContext,string,string,ModelManager,Factory,Serializer)</text><ellipse cx="17" cy="182.1211" fill="#84BE84" rx="3" ry="3" style="stroke: #038048; stroke-width: 1.0;"/><text fill="#000000" font-family="sans-serif" font-size="11" lengthAdjust="spacingAndGlyphs" textLength="451" x="26" y="184.4292">void constructor(string,string,SecurityContext,ModelManager,Factory,Serializer)</text><!--class Registry--><rect fill="#FEFECE" filter="url(#fprbuj4)" height="48" style="stroke: #A80036; stroke-width: 1.5;" width="82" x="232.25" y="322"/><ellipse cx="247.25" cy="338" fill="#ADD1B2" rx="11" ry="11" style="stroke: #A80036; stroke-width: 1.0;"/><path d="M250.2188,343.6406 Q249.6406,343.9375 249,344.0859 Q248.3594,344.2344 247.6563,344.2344 Q245.1563,344.2344 243.8359,342.5859 Q242.5156,340.9375 242.5156,337.8125 Q242.5156,334.6875 243.8359,333.0313 Q245.1563,331.375 247.6563,331.375 Q248.3594,331.375 249.0078,331.5313 Q249.6563,331.6875 250.2188,331.9844 L250.2188,334.7031 Q249.5938,334.125 249,333.8516 Q248.4063,333.5781 247.7813,333.5781 Q246.4375,333.5781 245.75,334.6484 Q245.0625,335.7188 245.0625,337.8125 Q245.0625,339.9063 245.75,340.9766 Q246.4375,342.0469 247.7813,342.0469 Q248.4063,342.0469 249,341.7734 Q249.5938,341.5 250.2188,340.9219 L250.2188,343.6406 Z "/><text fill="#000000" font-family="sans-serif" font-size="12" lengthAdjust="spacingAndGlyphs" textLength="50" x="261.25" y="342.1543">Registry</text><line style="stroke: #A80036; stroke-width: 1.5;" x1="233.25" x2="313.25" y1="354" y2="354"/><line style="stroke: #A80036; stroke-width: 1.5;" x1="233.25" x2="313.25" y1="362" y2="362"/><!--class BusinessNetworkConnection--><rect fill="#FEFECE" filter="url(#fprbuj4)" height="252.875" style="stroke: #A80036; stroke-width: 1.5;" width="322" x="576.25" y="8.5"/><ellipse cx="644" cy="24.5" fill="#ADD1B2" rx="11" ry="11" style="stroke: #A80036; stroke-width: 1.0;"/><path d="M646.9688,30.1406 Q646.3906,30.4375 645.75,30.5859 Q645.1094,30.7344 644.4063,30.7344 Q641.9063,30.7344 640.5859,29.0859 Q639.2656,27.4375 639.2656,24.3125 Q639.2656,21.1875 640.5859,19.5313 Q641.9063,17.875 644.4063,17.875 Q645.1094,17.875 645.7578,18.0313 Q646.4063,18.1875 646.9688,18.4844 L646.9688,21.2031 Q646.3438,20.625 645.75,20.3516 Q645.1563,20.0781 644.5313,20.0781 Q643.1875,20.0781 642.5,21.1484 Q641.8125,22.2188 641.8125,24.3125 Q641.8125,26.4063 642.5,27.4766 Q643.1875,28.5469 644.5313,28.5469 Q645.1563,28.5469 645.75,28.2734 Q646.3438,28 646.9688,27.4219 L646.9688,30.1406 Z "/><text fill="#000000" font-family="sans-serif" font-size="12" lengthAdjust="spacingAndGlyphs" textLength="178" x="664.5" y="28.6543">BusinessNetworkConnection</text><line style="stroke: #A80036; stroke-width: 1.5;" x1="577.25" x2="897.25" y1="40.5" y2="40.5"/><line style="stroke: #A80036; stroke-width: 1.5;" x1="577.25" x2="897.25" y1="48.5" y2="48.5"/><ellipse cx="587.25" cy="60.4023" fill="#84BE84" rx="3" ry="3" style="stroke: #038048; stroke-width: 1.0;"/><text fill="#000000" font-family="sans-serif" font-size="11" lengthAdjust="spacingAndGlyphs" textLength="225" x="596.25" y="62.7104">void constructor(Object,Object,boolean)</text><ellipse cx="587.25" cy="73.207" fill="#84BE84" rx="3" ry="3" style="stroke: #038048; stroke-width: 1.0;"/><text fill="#000000" font-family="sans-serif" font-size="11" lengthAdjust="spacingAndGlyphs" textLength="281" x="596.25" y="75.5151">BusinessNetworkDefinition getBusinessNetwork()</text><ellipse cx="587.25" cy="86.0117" fill="#84BE84" rx="3" ry="3" style="stroke: #038048; stroke-width: 1.0;"/><text fill="#000000" font-family="sans-serif" font-size="11" lengthAdjust="spacingAndGlyphs" textLength="268" x="596.25" y="88.3198">Promise getAllAssetRegistries(SecurityContext)</text><ellipse cx="587.25" cy="98.8164" fill="#84BE84" rx="3" ry="3" style="stroke: #038048; stroke-width: 1.0;"/><text fill="#000000" font-family="sans-serif" font-size="11" lengthAdjust="spacingAndGlyphs" textLength="188" x="596.25" y="101.1245">Promise getAssetRegistry(string)</text><ellipse cx="587.25" cy="111.6211" fill="#84BE84" rx="3" ry="3" style="stroke: #038048; stroke-width: 1.0;"/><text fill="#000000" font-family="sans-serif" font-size="11" lengthAdjust="spacingAndGlyphs" textLength="204" x="596.25" y="113.9292">Promise existsAssetRegistry(string)</text><ellipse cx="587.25" cy="124.4258" fill="#84BE84" rx="3" ry="3" style="stroke: #038048; stroke-width: 1.0;"/><text fill="#000000" font-family="sans-serif" font-size="11" lengthAdjust="spacingAndGlyphs" textLength="228" x="596.25" y="126.7339">Promise addAssetRegistry(string,string)</text><ellipse cx="587.25" cy="137.2305" fill="#84BE84" rx="3" ry="3" style="stroke: #038048; stroke-width: 1.0;"/><text fill="#000000" font-family="sans-serif" font-size="11" lengthAdjust="spacingAndGlyphs" textLength="296" x="596.25" y="139.5386">Promise getAllParticipantRegistries(SecurityContext)</text><ellipse cx="587.25" cy="150.0352" fill="#84BE84" rx="3" ry="3" style="stroke: #038048; stroke-width: 1.0;"/><text fill="#000000" font-family="sans-serif" font-size="11" lengthAdjust="spacingAndGlyphs" textLength="216" x="596.25" y="152.3433">Promise getParticipantRegistry(string)</text><ellipse cx="587.25" cy="162.8398" fill="#84BE84" rx="3" ry="3" style="stroke: #038048; stroke-width: 1.0;"/><text fill="#000000" font-family="sans-serif" font-size="11" lengthAdjust="spacingAndGlyphs" textLength="256" x="596.25" y="165.1479">Promise addParticipantRegistry(string,string)</text><ellipse cx="587.25" cy="175.6445" fill="#84BE84" rx="3" ry="3" style="stroke: #038048; stroke-width: 1.0;"/><text fill="#000000" font-family="sans-serif" font-size="11" lengthAdjust="spacingAndGlyphs" textLength="190" x="596.25" y="177.9526">Promise getTransactionRegistry()</text><ellipse cx="587.25" cy="188.4492" fill="#84BE84" rx="3" ry="3" style="stroke: #038048; stroke-width: 1.0;"/><text fill="#000000" font-family="sans-serif" font-size="11" lengthAdjust="spacingAndGlyphs" textLength="247" x="596.25" y="190.7573">Promise connect(string,string,string,string)</text><ellipse cx="587.25" cy="201.2539" fill="#84BE84" rx="3" ry="3" style="stroke: #038048; stroke-width: 1.0;"/><text fill="#000000" font-family="sans-serif" font-size="11" lengthAdjust="spacingAndGlyphs" textLength="120" x="596.25" y="203.562">Promise disconnect()</text><ellipse cx="587.25" cy="214.0586" fill="#84BE84" rx="3" ry="3" style="stroke: #038048; stroke-width: 1.0;"/><text fill="#000000" font-family="sans-serif" font-size="11" lengthAdjust="spacingAndGlyphs" textLength="218" x="596.25" y="216.3667">Promise submitTransaction(Resource)</text><ellipse cx="587.25" cy="226.8633" fill="#84BE84" rx="3" ry="3" style="stroke: #038048; stroke-width: 1.0;"/><text fill="#000000" font-family="sans-serif" font-size="11" lengthAdjust="spacingAndGlyphs" textLength="83" x="596.25" y="229.1714">Promise ping()</text><ellipse cx="587.25" cy="239.668" fill="#84BE84" rx="3" ry="3" style="stroke: #038048; stroke-width: 1.0;"/><text fill="#000000" font-family="sans-serif" font-size="11" lengthAdjust="spacingAndGlyphs" textLength="251" x="596.25" y="241.9761">Promise issueIdentity(string,object,boolean)</text><ellipse cx="587.25" cy="252.4727" fill="#84BE84" rx="3" ry="3" style="stroke: #038048; stroke-width: 1.0;"/><text fill="#000000" font-family="sans-serif" font-size="11" lengthAdjust="spacingAndGlyphs" textLength="171" x="596.25" y="254.7808">Promise revokeIdentity(string)</text><!--class EventEmitter--><rect fill="#FEFECE" filter="url(#fprbuj4)" height="48" style="stroke: #A80036; stroke-width: 1.5;" width="112" x="681.75" y="322"/><ellipse cx="696.75" cy="338" fill="#ADD1B2" rx="11" ry="11" style="stroke: #A80036; stroke-width: 1.0;"/><path d="M699.7188,343.6406 Q699.1406,343.9375 698.5,344.0859 Q697.8594,344.2344 697.1563,344.2344 Q694.6563,344.2344 693.3359,342.5859 Q692.0156,340.9375 692.0156,337.8125 Q692.0156,334.6875 693.3359,333.0313 Q694.6563,331.375 697.1563,331.375 Q697.8594,331.375 698.5078,331.5313 Q699.1563,331.6875 699.7188,331.9844 L699.7188,334.7031 Q699.0938,334.125 698.5,333.8516 Q697.9063,333.5781 697.2813,333.5781 Q695.9375,333.5781 695.25,334.6484 Q694.5625,335.7188 694.5625,337.8125 Q694.5625,339.9063 695.25,340.9766 Q695.9375,342.0469 697.2813,342.0469 Q697.9063,342.0469 698.5,341.7734 Q699.0938,341.5 699.7188,340.9219 L699.7188,343.6406 Z "/><text fill="#000000" font-family="sans-serif" font-size="12" lengthAdjust="spacingAndGlyphs" textLength="80" x="710.75" y="342.1543">EventEmitter</text><line style="stroke: #A80036; stroke-width: 1.5;" x1="682.75" x2="792.75" y1="354" y2="354"/><line style="stroke: #A80036; stroke-width: 1.5;" x1="682.75" x2="792.75" y1="362" y2="362"/><path d="M273.25,191.186 C273.25,225.774 273.25,269.715 273.25,301.7674 " fill="none" style="stroke: #A80036; stroke-width: 1.0;"/><polygon fill="none" points="280.25,301.7971,273.25,321.7971,266.25,301.7971,280.25,301.7971" style="stroke: #A80036; stroke-width: 1.0;"/><path d="M737.25,261.797 C737.25,275.9901 737.25,289.6357 737.25,301.6257 " fill="none" style="stroke: #A80036; stroke-width: 1.0;"/><polygon fill="none" points="744.25,301.761,737.25,321.7609,730.25,301.7609,744.25,301.761" style="stroke: #A80036; stroke-width: 1.0;"/></g></svg>