<?xml version="1.0" encoding="UTF-8" standalone="no"?><svg xmlns="http://www.w3.org/2000/svg" xmlns:xlink="http://www.w3.org/1999/xlink" contentScriptType="application/ecmascript" contentStyleType="text/css" height="187px" preserveAspectRatio="none" style="width:154px;height:187px;" version="1.1" viewBox="0 0 154 187" width="154px" zoomAndPan="magnify"><defs><filter height="300%" id="ftjbzyj" width="300%" x="-1" y="-1"><feGaussianBlur result="blurOut" stdDeviation="2.0"/><feColorMatrix in="blurOut" result="blurOut2" type="matrix" values="0 0 0 0 0 0 0 0 0 0 0 0 0 0 0 0 0 0 .4 0"/><feOffset dx="4.0" dy="4.0" in="blurOut2" result="blurOut3"/><feBlend in="SourceGraphic" in2="blurOut3" mode="normal"/></filter></defs><g><!--class Concept--><rect fill="#FEFECE" filter="url(#ftjbzyj)" height="60.8047" style="stroke: #A80036; stroke-width: 1.5;" width="139" x="6" y="8.5"/><ellipse cx="45.75" cy="24.5" fill="#ADD1B2" rx="11" ry="11" style="stroke: #A80036; stroke-width: 1.0;"/><path d="M48.7188,30.1406 Q48.1406,30.4375 47.5,30.5859 Q46.8594,30.7344 46.1563,30.7344 Q43.6563,30.7344 42.3359,29.0859 Q41.0156,27.4375 41.0156,24.3125 Q41.0156,21.1875 42.3359,19.5313 Q43.6563,17.875 46.1563,17.875 Q46.8594,17.875 47.5078,18.0313 Q48.1563,18.1875 48.7188,18.4844 L48.7188,21.2031 Q48.0938,20.625 47.5,20.3516 Q46.9063,20.0781 46.2813,20.0781 Q44.9375,20.0781 44.25,21.1484 Q43.5625,22.2188 43.5625,24.3125 Q43.5625,26.4063 44.25,27.4766 Q44.9375,28.5469 46.2813,28.5469 Q46.9063,28.5469 47.5,28.2734 Q48.0938,28 48.7188,27.4219 L48.7188,30.1406 Z "/><text fill="#000000" font-family="sans-serif" font-size="12" lengthAdjust="spacingAndGlyphs" textLength="52" x="65.25" y="28.6543">Concept</text><line style="stroke: #A80036; stroke-width: 1.5;" x1="7" x2="144" y1="40.5" y2="40.5"/><line style="stroke: #A80036; stroke-width: 1.5;" x1="7" x2="144" y1="48.5" y2="48.5"/><ellipse cx="17" cy="60.4023" fill="#84BE84" rx="3" ry="3" style="stroke: #038048; stroke-width: 1.0;"/><text fill="#000000" font-family="sans-serif" font-size="11" lengthAdjust="spacingAndGlyphs" textLength="113" x="26" y="62.7104">boolean isConcept()</text><!--class Typed--><rect fill="#FEFECE" filter="url(#ftjbzyj)" height="48" style="stroke: #A80036; stroke-width: 1.5;" width="69" x="41" y="130"/><ellipse cx="56" cy="146" fill="#ADD1B2" rx="11" ry="11" style="stroke: #A80036; stroke-width: 1.0;"/><path d="M58.9688,151.6406 Q58.3906,151.9375 57.75,152.0859 Q57.1094,152.2344 56.4063,152.2344 Q53.9063,152.2344 52.5859,150.5859 Q51.2656,148.9375 51.2656,145.8125 Q51.2656,142.6875 52.5859,141.0313 Q53.9063,139.375 56.4063,139.375 Q57.1094,139.375 57.7578,139.5313 Q58.4063,139.6875 58.9688,139.9844 L58.9688,142.7031 Q58.3438,142.125 57.75,141.8516 Q57.1563,141.5781 56.5313,141.5781 Q55.1875,141.5781 54.5,142.6484 Q53.8125,143.7188 53.8125,145.8125 Q53.8125,147.9063 54.5,148.9766 Q55.1875,150.0469 56.5313,150.0469 Q57.1563,150.0469 57.75,149.7734 Q58.3438,149.5 58.9688,148.9219 L58.9688,151.6406 Z "/><text fill="#000000" font-family="sans-serif" font-size="12" lengthAdjust="spacingAndGlyphs" textLength="37" x="70" y="150.1543">Typed</text><line style="stroke: #A80036; stroke-width: 1.5;" x1="42" x2="109" y1="162" y2="162"/><line style="stroke: #A80036; stroke-width: 1.5;" x1="42" x2="109" y1="170" y2="170"/><path d="M75.25,69.689 C75.25,81.9011 75.25,96.2881 75.25,109.6388 " fill="none" style="stroke: #A80036; stroke-width: 1.0;"/><polygon fill="none" points="82.2501,109.9284,75.25,129.9284,68.2501,109.9283,82.2501,109.9284" style="stroke: #A80036; stroke-width: 1.0;"/></g></svg>