<?xml version="1.0" encoding="UTF-8" standalone="no"?><svg xmlns="http://www.w3.org/2000/svg" xmlns:xlink="http://www.w3.org/1999/xlink" contentScriptType="application/ecmascript" contentStyleType="text/css" height="134px" preserveAspectRatio="none" style="width:355px;height:134px;" version="1.1" viewBox="0 0 355 134" width="355px" zoomAndPan="magnify"><defs/><g><!--class Factory--><rect fill="#F8FAFA" height="125.4844" rx="1" ry="1" style="stroke: #E3ECEC; stroke-width: 1.5;" width="348" x="6" y="8.5"/><ellipse cx="157.75" cy="22.5" fill="#FFFFFF" rx="9" ry="9" style="stroke: #E3ECEC; stroke-width: 1.0;"/><path d="M159.0313,25.7969 Q158.6875,25.9688 158.3125,26.0547 Q157.9375,26.1406 157.5156,26.1406 Q156.0469,26.1406 155.2734,25.1719 Q154.5,24.2031 154.5,22.3594 Q154.5,20.5156 155.2734,19.5469 Q156.0469,18.5781 157.5156,18.5781 Q157.9375,18.5781 158.3203,18.6641 Q158.7031,18.75 159.0313,18.9219 L159.0313,20.5313 Q158.6563,20.1875 158.3047,20.0313 Q157.9531,19.875 157.5938,19.875 Q156.7969,19.875 156.3906,20.5 Q155.9844,21.125 155.9844,22.3594 Q155.9844,23.5938 156.3906,24.2188 Q156.7969,24.8438 157.5938,24.8438 Q157.9531,24.8438 158.3047,24.6875 Q158.6563,24.5313 159.0313,24.1875 L159.0313,25.7969 Z "/><text fill="#19273C" font-family="Open Sans" font-size="10" lengthAdjust="spacingAndGlyphs" textLength="37" x="175.25" y="25.9619">Factory</text><line style="stroke: #E3ECEC; stroke-width: 1.5;" x1="7" x2="353" y1="36.5" y2="36.5"/><line style="stroke: #E3ECEC; stroke-width: 1.5;" x1="7" x2="353" y1="44.5" y2="44.5"/><ellipse cx="16" cy="55.8203" fill="#84BE84" rx="2" ry="2" style="stroke: #038048; stroke-width: 1.0;"/><text fill="#19273C" font-family="Open Sans" font-size="10" lengthAdjust="spacingAndGlyphs" textLength="158" x="24" y="57.7822">void constructor(ModelManager)</text><ellipse cx="16" cy="67.4609" fill="#84BE84" rx="2" ry="2" style="stroke: #038048; stroke-width: 1.0;"/><text fill="#19273C" font-family="Open Sans" font-size="10" lengthAdjust="spacingAndGlyphs" textLength="320" x="24" y="69.4229">Resource newInstance(string,string,string,Object,boolean,boolean)</text><ellipse cx="16" cy="79.1016" fill="#84BE84" rx="2" ry="2" style="stroke: #038048; stroke-width: 1.0;"/><text fill="#19273C" font-family="Open Sans" font-size="10" lengthAdjust="spacingAndGlyphs" textLength="324" x="24" y="81.0635">Resource newResource(string,string,string,Object,boolean,boolean)</text><ellipse cx="16" cy="90.7422" fill="#84BE84" rx="2" ry="2" style="stroke: #038048; stroke-width: 1.0;"/><text fill="#19273C" font-family="Open Sans" font-size="10" lengthAdjust="spacingAndGlyphs" textLength="290" x="24" y="92.7041">Resource newConcept(string,string,Object,boolean,boolean)</text><ellipse cx="16" cy="102.3828" fill="#84BE84" rx="2" ry="2" style="stroke: #038048; stroke-width: 1.0;"/><text fill="#19273C" font-family="Open Sans" font-size="10" lengthAdjust="spacingAndGlyphs" textLength="234" x="24" y="104.3447">Relationship newRelationship(string,string,string)</text><ellipse cx="16" cy="114.0234" fill="#84BE84" rx="2" ry="2" style="stroke: #038048; stroke-width: 1.0;"/><text fill="#19273C" font-family="Open Sans" font-size="10" lengthAdjust="spacingAndGlyphs" textLength="293" x="24" y="115.9854">Resource newTransaction(string,string,string,Object,boolean)</text><ellipse cx="16" cy="125.6641" fill="#84BE84" rx="2" ry="2" style="stroke: #038048; stroke-width: 1.0;"/><text fill="#19273C" font-family="Open Sans" font-size="10" lengthAdjust="spacingAndGlyphs" textLength="78" x="24" y="127.626">Object toJSON()</text></g></svg>