<?xml version="1.0" encoding="UTF-8" standalone="no"?><svg xmlns="http://www.w3.org/2000/svg" xmlns:xlink="http://www.w3.org/1999/xlink" contentScriptType="application/ecmascript" contentStyleType="text/css" height="187px" preserveAspectRatio="none" style="width:562px;height:187px;" version="1.1" viewBox="0 0 562 187" width="562px" zoomAndPan="magnify"><defs/><g><!--class Factory--><rect fill="#F8FAFA" height="178.375" rx="1" ry="1" style="stroke: #E3ECEC; stroke-width: 1.5;" width="555" x="6" y="8"/><ellipse cx="249.75" cy="24" fill="#FFFFFF" rx="11" ry="11" style="stroke: #E3ECEC; stroke-width: 1.0;"/><path d="M252.2031,29.6563 Q251.6563,29.9375 251.0547,30.0859 Q250.4531,30.2344 249.7813,30.2344 Q247.4219,30.2344 246.1797,28.6719 Q244.9375,27.1094 244.9375,24.1719 Q244.9375,21.2344 246.1797,19.6797 Q247.4219,18.125 249.7813,18.125 Q250.4531,18.125 251.0625,18.2656 Q251.6719,18.4063 252.2031,18.6875 L252.2031,21.25 Q251.6094,20.7031 251.0469,20.4453 Q250.4844,20.1875 249.8906,20.1875 Q248.625,20.1875 247.9844,21.1953 Q247.3438,22.2031 247.3438,24.1719 Q247.3438,26.1406 247.9844,27.1484 Q248.625,28.1563 249.8906,28.1563 Q250.4844,28.1563 251.0469,27.8984 Q251.6094,27.6406 252.2031,27.0938 L252.2031,29.6563 Z "/><text fill="#19273C" font-family="sans-serif" font-size="16" lengthAdjust="spacingAndGlyphs" textLength="59" x="270.25" y="29.5391">Factory</text><line style="stroke: #E3ECEC; stroke-width: 1.5;" x1="7" x2="560" y1="40" y2="40"/><line style="stroke: #E3ECEC; stroke-width: 1.5;" x1="7" x2="560" y1="48" y2="48"/><ellipse cx="17" cy="62.3125" fill="#84BE84" rx="3" ry="3" style="stroke: #038048; stroke-width: 1.0;"/><text fill="#19273C" font-family="sans-serif" font-size="16" lengthAdjust="spacingAndGlyphs" textLength="254" x="26" y="66.8516">void constructor(ModelManager)</text><ellipse cx="17" cy="80.9375" fill="#84BE84" rx="3" ry="3" style="stroke: #038048; stroke-width: 1.0;"/><text fill="#19273C" font-family="sans-serif" font-size="16" lengthAdjust="spacingAndGlyphs" textLength="522" x="26" y="85.4766">Resource newInstance(string,string,string,Object,boolean,boolean)</text><ellipse cx="17" cy="99.5625" fill="#84BE84" rx="3" ry="3" style="stroke: #038048; stroke-width: 1.0;"/><text fill="#19273C" font-family="sans-serif" font-size="16" lengthAdjust="spacingAndGlyphs" textLength="529" x="26" y="104.1016">Resource newResource(string,string,string,Object,boolean,boolean)</text><ellipse cx="17" cy="118.1875" fill="#84BE84" rx="3" ry="3" style="stroke: #038048; stroke-width: 1.0;"/><text fill="#19273C" font-family="sans-serif" font-size="16" lengthAdjust="spacingAndGlyphs" textLength="470" x="26" y="122.7266">Resource newConcept(string,string,Object,boolean,boolean)</text><ellipse cx="17" cy="136.8125" fill="#84BE84" rx="3" ry="3" style="stroke: #038048; stroke-width: 1.0;"/><text fill="#19273C" font-family="sans-serif" font-size="16" lengthAdjust="spacingAndGlyphs" textLength="380" x="26" y="141.3516">Relationship newRelationship(string,string,string)</text><ellipse cx="17" cy="155.4375" fill="#84BE84" rx="3" ry="3" style="stroke: #038048; stroke-width: 1.0;"/><text fill="#19273C" font-family="sans-serif" font-size="16" lengthAdjust="spacingAndGlyphs" textLength="480" x="26" y="159.9766">Resource newTransaction(string,string,string,Object,boolean)</text><ellipse cx="17" cy="174.0625" fill="#84BE84" rx="3" ry="3" style="stroke: #038048; stroke-width: 1.0;"/><text fill="#19273C" font-family="sans-serif" font-size="16" lengthAdjust="spacingAndGlyphs" textLength="123" x="26" y="178.6016">Object toJSON()</text></g></svg>