<?xml version="1.0" encoding="UTF-8" standalone="no"?><svg xmlns="http://www.w3.org/2000/svg" xmlns:xlink="http://www.w3.org/1999/xlink" contentScriptType="application/ecmascript" contentStyleType="text/css" height="251px" preserveAspectRatio="none" style="width:212px;height:251px;" version="1.1" viewBox="0 0 212 251" width="212px" zoomAndPan="magnify"><defs/><g><!--class FileWallet--><rect fill="#F8FAFA" height="137.125" rx="1" ry="1" style="stroke: #E3ECEC; stroke-width: 1.5;" width="205" x="6" y="8.5"/><ellipse cx="82.25" cy="22.5" fill="#FFFFFF" rx="9" ry="9" style="stroke: #E3ECEC; stroke-width: 1.0;"/><path d="M83.5313,25.7969 Q83.1875,25.9688 82.8125,26.0547 Q82.4375,26.1406 82.0156,26.1406 Q80.5469,26.1406 79.7734,25.1719 Q79,24.2031 79,22.3594 Q79,20.5156 79.7734,19.5469 Q80.5469,18.5781 82.0156,18.5781 Q82.4375,18.5781 82.8203,18.6641 Q83.2031,18.75 83.5313,18.9219 L83.5313,20.5313 Q83.1563,20.1875 82.8047,20.0313 Q82.4531,19.875 82.0938,19.875 Q81.2969,19.875 80.8906,20.5 Q80.4844,21.125 80.4844,22.3594 Q80.4844,23.5938 80.8906,24.2188 Q81.2969,24.8438 82.0938,24.8438 Q82.4531,24.8438 82.8047,24.6875 Q83.1563,24.5313 83.5313,24.1875 L83.5313,25.7969 Z "/><text fill="#19273C" font-family="Open Sans" font-size="10" lengthAdjust="spacingAndGlyphs" textLength="45" x="99.75" y="25.9619">FileWallet</text><line style="stroke: #E3ECEC; stroke-width: 1.5;" x1="7" x2="210" y1="36.5" y2="36.5"/><line style="stroke: #E3ECEC; stroke-width: 1.5;" x1="7" x2="210" y1="44.5" y2="44.5"/><ellipse cx="16" cy="55.8203" fill="#84BE84" rx="2" ry="2" style="stroke: #038048; stroke-width: 1.0;"/><text fill="#19273C" font-family="Open Sans" font-size="10" lengthAdjust="spacingAndGlyphs" textLength="129" x="24" y="57.7822">string getHomeDirectory()</text><ellipse cx="16" cy="67.4609" fill="#84BE84" rx="2" ry="2" style="stroke: #038048; stroke-width: 1.0;"/><text fill="#19273C" font-family="Open Sans" font-size="10" lengthAdjust="spacingAndGlyphs" textLength="181" x="24" y="69.4229">void constructor(Object,string,Object)</text><ellipse cx="16" cy="79.1016" fill="#84BE84" rx="2" ry="2" style="stroke: #038048; stroke-width: 1.0;"/><text fill="#19273C" font-family="Open Sans" font-size="10" lengthAdjust="spacingAndGlyphs" textLength="64" x="24" y="81.0635">Promise list()</text><ellipse cx="16" cy="90.7422" fill="#84BE84" rx="2" ry="2" style="stroke: #038048; stroke-width: 1.0;"/><text fill="#19273C" font-family="Open Sans" font-size="10" lengthAdjust="spacingAndGlyphs" textLength="118" x="24" y="92.7041">Promise contains(string)</text><ellipse cx="16" cy="102.3828" fill="#84BE84" rx="2" ry="2" style="stroke: #038048; stroke-width: 1.0;"/><text fill="#19273C" font-family="Open Sans" font-size="10" lengthAdjust="spacingAndGlyphs" textLength="94" x="24" y="104.3447">Promise get(string)</text><ellipse cx="16" cy="114.0234" fill="#84BE84" rx="2" ry="2" style="stroke: #038048; stroke-width: 1.0;"/><text fill="#19273C" font-family="Open Sans" font-size="10" lengthAdjust="spacingAndGlyphs" textLength="126" x="24" y="115.9854">Promise add(string,string)</text><ellipse cx="16" cy="125.6641" fill="#84BE84" rx="2" ry="2" style="stroke: #038048; stroke-width: 1.0;"/><text fill="#19273C" font-family="Open Sans" font-size="10" lengthAdjust="spacingAndGlyphs" textLength="142" x="24" y="127.626">Promise update(string,string)</text><ellipse cx="16" cy="137.3047" fill="#84BE84" rx="2" ry="2" style="stroke: #038048; stroke-width: 1.0;"/><text fill="#19273C" font-family="Open Sans" font-size="10" lengthAdjust="spacingAndGlyphs" textLength="116" x="24" y="139.2666">Promise remove(string)</text><!--class Wallet--><rect fill="#F8FAFA" height="44" rx="1" ry="1" style="stroke: #E3ECEC; stroke-width: 1.5;" width="57" x="80" y="206"/><ellipse cx="93" cy="220" fill="#FFFFFF" rx="9" ry="9" style="stroke: #E3ECEC; stroke-width: 1.0;"/><path d="M94.2813,223.2969 Q93.9375,223.4688 93.5625,223.5547 Q93.1875,223.6406 92.7656,223.6406 Q91.2969,223.6406 90.5234,222.6719 Q89.75,221.7031 89.75,219.8594 Q89.75,218.0156 90.5234,217.0469 Q91.2969,216.0781 92.7656,216.0781 Q93.1875,216.0781 93.5703,216.1641 Q93.9531,216.25 94.2813,216.4219 L94.2813,218.0313 Q93.9063,217.6875 93.5547,217.5313 Q93.2031,217.375 92.8438,217.375 Q92.0469,217.375 91.6406,218 Q91.2344,218.625 91.2344,219.8594 Q91.2344,221.0938 91.6406,221.7188 Q92.0469,222.3438 92.8438,222.3438 Q93.2031,222.3438 93.5547,222.1875 Q93.9063,222.0313 94.2813,221.6875 L94.2813,223.2969 Z "/><text fill="#19273C" font-family="Open Sans" font-size="10" lengthAdjust="spacingAndGlyphs" textLength="29" x="105" y="223.4619">Wallet</text><line style="stroke: #E3ECEC; stroke-width: 1.5;" x1="81" x2="136" y1="234" y2="234"/><line style="stroke: #E3ECEC; stroke-width: 1.5;" x1="81" x2="136" y1="242" y2="242"/><path d="M108.25,145.525 C108.25,159.1921 108.25,173.1753 108.25,185.6127 " fill="none" style="stroke: #3C6DF0; stroke-width: 1.0;"/><polygon fill="none" points="115.25,185.9286,108.25,205.9286,101.2501,185.9285,115.25,185.9286" style="stroke: #3C6DF0; stroke-width: 1.0;"/></g></svg>