<?xml version="1.0" encoding="UTF-8" standalone="no"?><svg xmlns="http://www.w3.org/2000/svg" xmlns:xlink="http://www.w3.org/1999/xlink" contentScriptType="application/ecmascript" contentStyleType="text/css" height="251px" preserveAspectRatio="none" style="width:229px;height:251px;" version="1.1" viewBox="0 0 229 251" width="229px" zoomAndPan="magnify"><defs><filter height="300%" id="f1py0od" width="300%" x="-1" y="-1"><feGaussianBlur result="blurOut" stdDeviation="2.0"/><feColorMatrix in="blurOut" result="blurOut2" type="matrix" values="0 0 0 0 0 0 0 0 0 0 0 0 0 0 0 0 0 0 .4 0"/><feOffset dx="4.0" dy="4.0" in="blurOut2" result="blurOut3"/><feBlend in="SourceGraphic" in2="blurOut3" mode="normal"/></filter></defs><g><!--class Identifiable--><rect fill="#FEFECE" filter="url(#f1py0od)" height="124.8281" style="stroke: #A80036; stroke-width: 1.5;" width="214" x="6" y="8.5"/><ellipse cx="74.25" cy="24.5" fill="#ADD1B2" rx="11" ry="11" style="stroke: #A80036; stroke-width: 1.0;"/><path d="M77.2188,30.1406 Q76.6406,30.4375 76,30.5859 Q75.3594,30.7344 74.6563,30.7344 Q72.1563,30.7344 70.8359,29.0859 Q69.5156,27.4375 69.5156,24.3125 Q69.5156,21.1875 70.8359,19.5313 Q72.1563,17.875 74.6563,17.875 Q75.3594,17.875 76.0078,18.0313 Q76.6563,18.1875 77.2188,18.4844 L77.2188,21.2031 Q76.5938,20.625 76,20.3516 Q75.4063,20.0781 74.7813,20.0781 Q73.4375,20.0781 72.75,21.1484 Q72.0625,22.2188 72.0625,24.3125 Q72.0625,26.4063 72.75,27.4766 Q73.4375,28.5469 74.7813,28.5469 Q75.4063,28.5469 76,28.2734 Q76.5938,28 77.2188,27.4219 L77.2188,30.1406 Z "/><text fill="#000000" font-family="sans-serif" font-size="12" lengthAdjust="spacingAndGlyphs" textLength="69" x="94.75" y="28.6543">Identifiable</text><line style="stroke: #A80036; stroke-width: 1.5;" x1="7" x2="219" y1="40.5" y2="40.5"/><line style="stroke: #A80036; stroke-width: 1.5;" x1="7" x2="219" y1="48.5" y2="48.5"/><ellipse cx="17" cy="60.4023" fill="#84BE84" rx="3" ry="3" style="stroke: #038048; stroke-width: 1.0;"/><text fill="#000000" font-family="sans-serif" font-size="11" lengthAdjust="spacingAndGlyphs" textLength="113" x="26" y="62.7104">string getIdentifier()</text><ellipse cx="17" cy="73.207" fill="#84BE84" rx="3" ry="3" style="stroke: #038048; stroke-width: 1.0;"/><text fill="#000000" font-family="sans-serif" font-size="11" lengthAdjust="spacingAndGlyphs" textLength="136" x="26" y="75.5151">void setIdentifier(string)</text><ellipse cx="17" cy="86.0117" fill="#84BE84" rx="3" ry="3" style="stroke: #038048; stroke-width: 1.0;"/><text fill="#000000" font-family="sans-serif" font-size="11" lengthAdjust="spacingAndGlyphs" textLength="188" x="26" y="88.3198">string getFullyQualifiedIdentifier()</text><ellipse cx="17" cy="98.8164" fill="#84BE84" rx="3" ry="3" style="stroke: #038048; stroke-width: 1.0;"/><text fill="#000000" font-family="sans-serif" font-size="11" lengthAdjust="spacingAndGlyphs" textLength="91" x="26" y="101.1245">String toString()</text><ellipse cx="17" cy="111.6211" fill="#84BE84" rx="3" ry="3" style="stroke: #038048; stroke-width: 1.0;"/><text fill="#000000" font-family="sans-serif" font-size="11" lengthAdjust="spacingAndGlyphs" textLength="136" x="26" y="113.9292">boolean isRelationship()</text><ellipse cx="17" cy="124.4258" fill="#84BE84" rx="3" ry="3" style="stroke: #038048; stroke-width: 1.0;"/><text fill="#000000" font-family="sans-serif" font-size="11" lengthAdjust="spacingAndGlyphs" textLength="120" x="26" y="126.7339">boolean isResource()</text><!--class Typed--><rect fill="#FEFECE" filter="url(#f1py0od)" height="48" style="stroke: #A80036; stroke-width: 1.5;" width="69" x="78.25" y="194"/><ellipse cx="93.25" cy="210" fill="#ADD1B2" rx="11" ry="11" style="stroke: #A80036; stroke-width: 1.0;"/><path d="M96.2188,215.6406 Q95.6406,215.9375 95,216.0859 Q94.3594,216.2344 93.6563,216.2344 Q91.1563,216.2344 89.8359,214.5859 Q88.5156,212.9375 88.5156,209.8125 Q88.5156,206.6875 89.8359,205.0313 Q91.1563,203.375 93.6563,203.375 Q94.3594,203.375 95.0078,203.5313 Q95.6563,203.6875 96.2188,203.9844 L96.2188,206.7031 Q95.5938,206.125 95,205.8516 Q94.4063,205.5781 93.7813,205.5781 Q92.4375,205.5781 91.75,206.6484 Q91.0625,207.7188 91.0625,209.8125 Q91.0625,211.9063 91.75,212.9766 Q92.4375,214.0469 93.7813,214.0469 Q94.4063,214.0469 95,213.7734 Q95.5938,213.5 96.2188,212.9219 L96.2188,215.6406 Z "/><text fill="#000000" font-family="sans-serif" font-size="12" lengthAdjust="spacingAndGlyphs" textLength="37" x="107.25" y="214.1543">Typed</text><line style="stroke: #A80036; stroke-width: 1.5;" x1="79.25" x2="146.25" y1="226" y2="226"/><line style="stroke: #A80036; stroke-width: 1.5;" x1="79.25" x2="146.25" y1="234" y2="234"/><path d="M112.5,133.914 C112.5,147.3576 112.5,161.2979 112.5,173.8314 " fill="none" style="stroke: #A80036; stroke-width: 1.0;"/><polygon fill="none" points="119.5,173.8565,112.5,193.8565,105.5001,173.8564,119.5,173.8565" style="stroke: #A80036; stroke-width: 1.0;"/></g></svg>