<?xml version="1.0" encoding="UTF-8" standalone="no"?><svg xmlns="http://www.w3.org/2000/svg" xmlns:xlink="http://www.w3.org/1999/xlink" contentScriptType="application/ecmascript" contentStyleType="text/css" height="187px" preserveAspectRatio="none" style="width:181px;height:187px;" version="1.1" viewBox="0 0 181 187" width="181px" zoomAndPan="magnify"><defs><filter height="300%" id="f4mtj99" width="300%" x="-1" y="-1"><feGaussianBlur result="blurOut" stdDeviation="2.0"/><feColorMatrix in="blurOut" result="blurOut2" type="matrix" values="0 0 0 0 0 0 0 0 0 0 0 0 0 0 0 0 0 0 .4 0"/><feOffset dx="4.0" dy="4.0" in="blurOut2" result="blurOut3"/><feBlend in="SourceGraphic" in2="blurOut3" mode="normal"/></filter></defs><g><!--class IllegalModelException--><rect fill="#FEFECE" filter="url(#f4mtj99)" height="60.8047" style="stroke: #A80036; stroke-width: 1.5;" width="166" x="6" y="8.5"/><ellipse cx="21" cy="24.5" fill="#ADD1B2" rx="11" ry="11" style="stroke: #A80036; stroke-width: 1.0;"/><path d="M23.9688,30.1406 Q23.3906,30.4375 22.75,30.5859 Q22.1094,30.7344 21.4063,30.7344 Q18.9063,30.7344 17.5859,29.0859 Q16.2656,27.4375 16.2656,24.3125 Q16.2656,21.1875 17.5859,19.5313 Q18.9063,17.875 21.4063,17.875 Q22.1094,17.875 22.7578,18.0313 Q23.4063,18.1875 23.9688,18.4844 L23.9688,21.2031 Q23.3438,20.625 22.75,20.3516 Q22.1563,20.0781 21.5313,20.0781 Q20.1875,20.0781 19.5,21.1484 Q18.8125,22.2188 18.8125,24.3125 Q18.8125,26.4063 19.5,27.4766 Q20.1875,28.5469 21.5313,28.5469 Q22.1563,28.5469 22.75,28.2734 Q23.3438,28 23.9688,27.4219 L23.9688,30.1406 Z "/><text fill="#000000" font-family="sans-serif" font-size="12" lengthAdjust="spacingAndGlyphs" textLength="134" x="35" y="28.6543">IllegalModelException</text><line style="stroke: #A80036; stroke-width: 1.5;" x1="7" x2="171" y1="40.5" y2="40.5"/><line style="stroke: #A80036; stroke-width: 1.5;" x1="7" x2="171" y1="48.5" y2="48.5"/><ellipse cx="17" cy="60.4023" fill="#84BE84" rx="3" ry="3" style="stroke: #038048; stroke-width: 1.0;"/><text fill="#000000" font-family="sans-serif" font-size="11" lengthAdjust="spacingAndGlyphs" textLength="133" x="26" y="62.7104">void constructor(string)</text><!--class BaseException--><rect fill="#FEFECE" filter="url(#f4mtj99)" height="48" style="stroke: #A80036; stroke-width: 1.5;" width="124" x="27.5" y="130"/><ellipse cx="42.5" cy="146" fill="#ADD1B2" rx="11" ry="11" style="stroke: #A80036; stroke-width: 1.0;"/><path d="M45.4688,151.6406 Q44.8906,151.9375 44.25,152.0859 Q43.6094,152.2344 42.9063,152.2344 Q40.4063,152.2344 39.0859,150.5859 Q37.7656,148.9375 37.7656,145.8125 Q37.7656,142.6875 39.0859,141.0313 Q40.4063,139.375 42.9063,139.375 Q43.6094,139.375 44.2578,139.5313 Q44.9063,139.6875 45.4688,139.9844 L45.4688,142.7031 Q44.8438,142.125 44.25,141.8516 Q43.6563,141.5781 43.0313,141.5781 Q41.6875,141.5781 41,142.6484 Q40.3125,143.7188 40.3125,145.8125 Q40.3125,147.9063 41,148.9766 Q41.6875,150.0469 43.0313,150.0469 Q43.6563,150.0469 44.25,149.7734 Q44.8438,149.5 45.4688,148.9219 L45.4688,151.6406 Z "/><text fill="#000000" font-family="sans-serif" font-size="12" lengthAdjust="spacingAndGlyphs" textLength="92" x="56.5" y="150.1543">BaseException</text><line style="stroke: #A80036; stroke-width: 1.5;" x1="28.5" x2="150.5" y1="162" y2="162"/><line style="stroke: #A80036; stroke-width: 1.5;" x1="28.5" x2="150.5" y1="170" y2="170"/><path d="M89,69.689 C89,81.9011 89,96.2881 89,109.6388 " fill="none" style="stroke: #A80036; stroke-width: 1.0;"/><polygon fill="none" points="96.0001,109.9284,89,129.9284,82.0001,109.9283,96.0001,109.9284" style="stroke: #A80036; stroke-width: 1.0;"/></g></svg>