<?xml version="1.0" encoding="UTF-8" standalone="no"?><svg xmlns="http://www.w3.org/2000/svg" xmlns:xlink="http://www.w3.org/1999/xlink" contentScriptType="application/ecmascript" contentStyleType="text/css" height="193px" preserveAspectRatio="none" style="width:204px;height:193px;" version="1.1" viewBox="0 0 204 193" width="204px" zoomAndPan="magnify"><defs/><g><!--class IllegalModelException--><rect fill="#F8FAFA" height="78.9219" rx="1" ry="1" style="stroke: #E3ECEC; stroke-width: 1.5;" width="197" x="6" y="8.5"/><ellipse cx="48.75" cy="22.5" fill="#FFFFFF" rx="9" ry="9" style="stroke: #E3ECEC; stroke-width: 1.0;"/><path d="M50.0313,25.7969 Q49.6875,25.9688 49.3125,26.0547 Q48.9375,26.1406 48.5156,26.1406 Q47.0469,26.1406 46.2734,25.1719 Q45.5,24.2031 45.5,22.3594 Q45.5,20.5156 46.2734,19.5469 Q47.0469,18.5781 48.5156,18.5781 Q48.9375,18.5781 49.3203,18.6641 Q49.7031,18.75 50.0313,18.9219 L50.0313,20.5313 Q49.6563,20.1875 49.3047,20.0313 Q48.9531,19.875 48.5938,19.875 Q47.7969,19.875 47.3906,20.5 Q46.9844,21.125 46.9844,22.3594 Q46.9844,23.5938 47.3906,24.2188 Q47.7969,24.8438 48.5938,24.8438 Q48.9531,24.8438 49.3047,24.6875 Q49.6563,24.5313 50.0313,24.1875 L50.0313,25.7969 Z "/><text fill="#19273C" font-family="Open Sans" font-size="10" lengthAdjust="spacingAndGlyphs" textLength="104" x="66.25" y="25.9619">IllegalModelException</text><line style="stroke: #E3ECEC; stroke-width: 1.5;" x1="7" x2="202" y1="36.5" y2="36.5"/><line style="stroke: #E3ECEC; stroke-width: 1.5;" x1="7" x2="202" y1="44.5" y2="44.5"/><ellipse cx="16" cy="55.8203" fill="#84BE84" rx="2" ry="2" style="stroke: #038048; stroke-width: 1.0;"/><text fill="#19273C" font-family="Open Sans" font-size="10" lengthAdjust="spacingAndGlyphs" textLength="173" x="24" y="57.7822">void constructor(string,string,string)</text><ellipse cx="16" cy="67.4609" fill="#84BE84" rx="2" ry="2" style="stroke: #038048; stroke-width: 1.0;"/><text fill="#19273C" font-family="Open Sans" font-size="10" lengthAdjust="spacingAndGlyphs" textLength="99" x="24" y="69.4229">string getModelFile()</text><ellipse cx="16" cy="79.1016" fill="#84BE84" rx="2" ry="2" style="stroke: #038048; stroke-width: 1.0;"/><text fill="#19273C" font-family="Open Sans" font-size="10" lengthAdjust="spacingAndGlyphs" textLength="111" x="24" y="81.0635">string getFileLocation()</text><!--class BaseException--><rect fill="#F8FAFA" height="44" rx="1" ry="1" style="stroke: #E3ECEC; stroke-width: 1.5;" width="100" x="54.25" y="148"/><ellipse cx="67.25" cy="162" fill="#FFFFFF" rx="9" ry="9" style="stroke: #E3ECEC; stroke-width: 1.0;"/><path d="M68.5313,165.2969 Q68.1875,165.4688 67.8125,165.5547 Q67.4375,165.6406 67.0156,165.6406 Q65.5469,165.6406 64.7734,164.6719 Q64,163.7031 64,161.8594 Q64,160.0156 64.7734,159.0469 Q65.5469,158.0781 67.0156,158.0781 Q67.4375,158.0781 67.8203,158.1641 Q68.2031,158.25 68.5313,158.4219 L68.5313,160.0313 Q68.1563,159.6875 67.8047,159.5313 Q67.4531,159.375 67.0938,159.375 Q66.2969,159.375 65.8906,160 Q65.4844,160.625 65.4844,161.8594 Q65.4844,163.0938 65.8906,163.7188 Q66.2969,164.3438 67.0938,164.3438 Q67.4531,164.3438 67.8047,164.1875 Q68.1563,164.0313 68.5313,163.6875 L68.5313,165.2969 Z "/><text fill="#19273C" font-family="Open Sans" font-size="10" lengthAdjust="spacingAndGlyphs" textLength="72" x="79.25" y="165.4619">BaseException</text><line style="stroke: #E3ECEC; stroke-width: 1.5;" x1="55.25" x2="153.25" y1="176" y2="176"/><line style="stroke: #E3ECEC; stroke-width: 1.5;" x1="55.25" x2="153.25" y1="184" y2="184"/><path d="M104.25,87.629 C104.25,100.4459 104.25,114.7591 104.25,127.7644 " fill="none" style="stroke: #3C6DF0; stroke-width: 1.0;"/><polygon fill="none" points="111.25,127.9216,104.25,147.9216,97.2501,127.9216,111.25,127.9216" style="stroke: #3C6DF0; stroke-width: 1.0;"/></g></svg>