<?xml version="1.0" encoding="UTF-8" standalone="no"?><svg xmlns="http://www.w3.org/2000/svg" xmlns:xlink="http://www.w3.org/1999/xlink" contentScriptType="application/ecmascript" contentStyleType="text/css" height="88px" preserveAspectRatio="none" style="width:249px;height:88px;" version="1.1" viewBox="0 0 249 88" width="249px" zoomAndPan="magnify"><defs/><g><!--class Introspector--><rect fill="#F8FAFA" height="78.9219" rx="1" ry="1" style="stroke: #E3ECEC; stroke-width: 1.5;" width="242" x="6" y="8.5"/><ellipse cx="93.75" cy="22.5" fill="#FFFFFF" rx="9" ry="9" style="stroke: #E3ECEC; stroke-width: 1.0;"/><path d="M95.0313,25.7969 Q94.6875,25.9688 94.3125,26.0547 Q93.9375,26.1406 93.5156,26.1406 Q92.0469,26.1406 91.2734,25.1719 Q90.5,24.2031 90.5,22.3594 Q90.5,20.5156 91.2734,19.5469 Q92.0469,18.5781 93.5156,18.5781 Q93.9375,18.5781 94.3203,18.6641 Q94.7031,18.75 95.0313,18.9219 L95.0313,20.5313 Q94.6563,20.1875 94.3047,20.0313 Q93.9531,19.875 93.5938,19.875 Q92.7969,19.875 92.3906,20.5 Q91.9844,21.125 91.9844,22.3594 Q91.9844,23.5938 92.3906,24.2188 Q92.7969,24.8438 93.5938,24.8438 Q93.9531,24.8438 94.3047,24.6875 Q94.6563,24.5313 95.0313,24.1875 L95.0313,25.7969 Z "/><text fill="#19273C" font-family="Open Sans" font-size="10" lengthAdjust="spacingAndGlyphs" textLength="59" x="111.25" y="25.9619">Introspector</text><line style="stroke: #E3ECEC; stroke-width: 1.5;" x1="7" x2="247" y1="36.5" y2="36.5"/><line style="stroke: #E3ECEC; stroke-width: 1.5;" x1="7" x2="247" y1="44.5" y2="44.5"/><ellipse cx="16" cy="55.8203" fill="#84BE84" rx="2" ry="2" style="stroke: #038048; stroke-width: 1.0;"/><text fill="#19273C" font-family="Open Sans" font-size="10" lengthAdjust="spacingAndGlyphs" textLength="158" x="24" y="57.7822">void constructor(ModelManager)</text><ellipse cx="16" cy="67.4609" fill="#84BE84" rx="2" ry="2" style="stroke: #038048; stroke-width: 1.0;"/><text fill="#19273C" font-family="Open Sans" font-size="10" lengthAdjust="spacingAndGlyphs" textLength="202" x="24" y="69.4229">ClassDeclaration[] getClassDeclarations()</text><ellipse cx="16" cy="79.1016" fill="#84BE84" rx="2" ry="2" style="stroke: #038048; stroke-width: 1.0;"/><text fill="#19273C" font-family="Open Sans" font-size="10" lengthAdjust="spacingAndGlyphs" textLength="218" x="24" y="81.0635">ClassDeclaration getClassDeclaration(String)</text></g></svg>