<?xml version="1.0" encoding="UTF-8" standalone="no"?><svg xmlns="http://www.w3.org/2000/svg" xmlns:xlink="http://www.w3.org/1999/xlink" contentScriptType="application/ecmascript" contentStyleType="text/css" height="169px" preserveAspectRatio="none" style="width:144px;height:169px;" version="1.1" viewBox="0 0 144 169" width="144px" zoomAndPan="magnify"><defs/><g><!--class ParseException--><rect fill="#F8FAFA" height="55.6406" rx="1" ry="1" style="stroke: #E3ECEC; stroke-width: 1.5;" width="137" x="6" y="8"/><ellipse cx="33.85" cy="22" fill="#FFFFFF" rx="9" ry="9" style="stroke: #E3ECEC; stroke-width: 1.0;"/><path d="M35.1313,25.2969 Q34.7875,25.4688 34.4125,25.5547 Q34.0375,25.6406 33.6156,25.6406 Q32.1469,25.6406 31.3734,24.6719 Q30.6,23.7031 30.6,21.8594 Q30.6,20.0156 31.3734,19.0469 Q32.1469,18.0781 33.6156,18.0781 Q34.0375,18.0781 34.4203,18.1641 Q34.8031,18.25 35.1313,18.4219 L35.1313,20.0313 Q34.7563,19.6875 34.4047,19.5313 Q34.0531,19.375 33.6938,19.375 Q32.8969,19.375 32.4906,20 Q32.0844,20.625 32.0844,21.8594 Q32.0844,23.0938 32.4906,23.7188 Q32.8969,24.3438 33.6938,24.3438 Q34.0531,24.3438 34.4047,24.1875 Q34.7563,24.0313 35.1313,23.6875 L35.1313,25.2969 Z "/><text fill="#19273C" font-family="Open Sans" font-size="10" lengthAdjust="spacingAndGlyphs" textLength="76" x="49.15" y="25.4619">ParseException</text><line style="stroke: #E3ECEC; stroke-width: 1.5;" x1="7" x2="142" y1="36" y2="36"/><line style="stroke: #E3ECEC; stroke-width: 1.5;" x1="7" x2="142" y1="44" y2="44"/><ellipse cx="16" cy="55.3203" fill="#84BE84" rx="2" ry="2" style="stroke: #038048; stroke-width: 1.0;"/><text fill="#19273C" font-family="Open Sans" font-size="10" lengthAdjust="spacingAndGlyphs" textLength="113" x="24" y="57.2822">void constructor(string)</text><!--class BaseException--><rect fill="#F8FAFA" height="44" rx="1" ry="1" style="stroke: #E3ECEC; stroke-width: 1.5;" width="100" x="24.25" y="124"/><ellipse cx="37.25" cy="138" fill="#FFFFFF" rx="9" ry="9" style="stroke: #E3ECEC; stroke-width: 1.0;"/><path d="M38.5313,141.2969 Q38.1875,141.4688 37.8125,141.5547 Q37.4375,141.6406 37.0156,141.6406 Q35.5469,141.6406 34.7734,140.6719 Q34,139.7031 34,137.8594 Q34,136.0156 34.7734,135.0469 Q35.5469,134.0781 37.0156,134.0781 Q37.4375,134.0781 37.8203,134.1641 Q38.2031,134.25 38.5313,134.4219 L38.5313,136.0313 Q38.1563,135.6875 37.8047,135.5313 Q37.4531,135.375 37.0938,135.375 Q36.2969,135.375 35.8906,136 Q35.4844,136.625 35.4844,137.8594 Q35.4844,139.0938 35.8906,139.7188 Q36.2969,140.3438 37.0938,140.3438 Q37.4531,140.3438 37.8047,140.1875 Q38.1563,140.0313 38.5313,139.6875 L38.5313,141.2969 Z "/><text fill="#19273C" font-family="Open Sans" font-size="10" lengthAdjust="spacingAndGlyphs" textLength="72" x="49.25" y="141.4619">BaseException</text><line style="stroke: #E3ECEC; stroke-width: 1.5;" x1="25.25" x2="123.25" y1="152" y2="152"/><line style="stroke: #E3ECEC; stroke-width: 1.5;" x1="25.25" x2="123.25" y1="160" y2="160"/><path d="M74.25,64.253 C74.25,76.2468 74.25,90.5959 74.25,103.8488 " fill="none" style="stroke: #3C6DF0; stroke-width: 1.0;"/><polygon fill="none" points="81.2501,103.888,74.25,123.888,67.2501,103.888,81.2501,103.888" style="stroke: #3C6DF0; stroke-width: 1.0;"/></g></svg>