<?xml version="1.0" encoding="UTF-8" standalone="no"?><svg xmlns="http://www.w3.org/2000/svg" xmlns:xlink="http://www.w3.org/1999/xlink" contentScriptType="application/ecmascript" contentStyleType="text/css" height="187px" preserveAspectRatio="none" style="width:174px;height:187px;" version="1.1" viewBox="0 0 174 187" width="174px" zoomAndPan="magnify"><defs><filter height="300%" id="flvyb53" width="300%" x="-1" y="-1"><feGaussianBlur result="blurOut" stdDeviation="2.0"/><feColorMatrix in="blurOut" result="blurOut2" type="matrix" values="0 0 0 0 0 0 0 0 0 0 0 0 0 0 0 0 0 0 .4 0"/><feOffset dx="4.0" dy="4.0" in="blurOut2" result="blurOut3"/><feBlend in="SourceGraphic" in2="blurOut3" mode="normal"/></filter></defs><g><!--class ParseException--><rect fill="#FEFECE" filter="url(#flvyb53)" height="60.8047" style="stroke: #A80036; stroke-width: 1.5;" width="159" x="6" y="8.5"/><ellipse cx="34.5" cy="24.5" fill="#ADD1B2" rx="11" ry="11" style="stroke: #A80036; stroke-width: 1.0;"/><path d="M37.4688,30.1406 Q36.8906,30.4375 36.25,30.5859 Q35.6094,30.7344 34.9063,30.7344 Q32.4063,30.7344 31.0859,29.0859 Q29.7656,27.4375 29.7656,24.3125 Q29.7656,21.1875 31.0859,19.5313 Q32.4063,17.875 34.9063,17.875 Q35.6094,17.875 36.2578,18.0313 Q36.9063,18.1875 37.4688,18.4844 L37.4688,21.2031 Q36.8438,20.625 36.25,20.3516 Q35.6563,20.0781 35.0313,20.0781 Q33.6875,20.0781 33,21.1484 Q32.3125,22.2188 32.3125,24.3125 Q32.3125,26.4063 33,27.4766 Q33.6875,28.5469 35.0313,28.5469 Q35.6563,28.5469 36.25,28.2734 Q36.8438,28 37.4688,27.4219 L37.4688,30.1406 Z "/><text fill="#000000" font-family="sans-serif" font-size="12" lengthAdjust="spacingAndGlyphs" textLength="97" x="51.5" y="28.6543">ParseException</text><line style="stroke: #A80036; stroke-width: 1.5;" x1="7" x2="164" y1="40.5" y2="40.5"/><line style="stroke: #A80036; stroke-width: 1.5;" x1="7" x2="164" y1="48.5" y2="48.5"/><ellipse cx="17" cy="60.4023" fill="#84BE84" rx="3" ry="3" style="stroke: #038048; stroke-width: 1.0;"/><text fill="#000000" font-family="sans-serif" font-size="11" lengthAdjust="spacingAndGlyphs" textLength="133" x="26" y="62.7104">void constructor(string)</text><!--class BaseException--><rect fill="#FEFECE" filter="url(#flvyb53)" height="48" style="stroke: #A80036; stroke-width: 1.5;" width="124" x="23.75" y="130"/><ellipse cx="38.75" cy="146" fill="#ADD1B2" rx="11" ry="11" style="stroke: #A80036; stroke-width: 1.0;"/><path d="M41.7188,151.6406 Q41.1406,151.9375 40.5,152.0859 Q39.8594,152.2344 39.1563,152.2344 Q36.6563,152.2344 35.3359,150.5859 Q34.0156,148.9375 34.0156,145.8125 Q34.0156,142.6875 35.3359,141.0313 Q36.6563,139.375 39.1563,139.375 Q39.8594,139.375 40.5078,139.5313 Q41.1563,139.6875 41.7188,139.9844 L41.7188,142.7031 Q41.0938,142.125 40.5,141.8516 Q39.9063,141.5781 39.2813,141.5781 Q37.9375,141.5781 37.25,142.6484 Q36.5625,143.7188 36.5625,145.8125 Q36.5625,147.9063 37.25,148.9766 Q37.9375,150.0469 39.2813,150.0469 Q39.9063,150.0469 40.5,149.7734 Q41.0938,149.5 41.7188,148.9219 L41.7188,151.6406 Z "/><text fill="#000000" font-family="sans-serif" font-size="12" lengthAdjust="spacingAndGlyphs" textLength="92" x="52.75" y="150.1543">BaseException</text><line style="stroke: #A80036; stroke-width: 1.5;" x1="24.75" x2="146.75" y1="162" y2="162"/><line style="stroke: #A80036; stroke-width: 1.5;" x1="24.75" x2="146.75" y1="170" y2="170"/><path d="M85.25,69.689 C85.25,81.9011 85.25,96.2881 85.25,109.6388 " fill="none" style="stroke: #A80036; stroke-width: 1.0;"/><polygon fill="none" points="92.2501,109.9284,85.25,129.9284,78.2501,109.9283,92.2501,109.9284" style="stroke: #A80036; stroke-width: 1.0;"/></g></svg>