<?xml version="1.0" encoding="UTF-8" standalone="no"?><svg xmlns="http://www.w3.org/2000/svg" xmlns:xlink="http://www.w3.org/1999/xlink" contentScriptType="application/ecmascript" contentStyleType="text/css" height="205px" preserveAspectRatio="none" style="width:494px;height:205px;" version="1.1" viewBox="0 0 494 205" width="494px" zoomAndPan="magnify"><defs/><g><!--class ParticipantRegistry--><rect fill="#F8FAFA" height="90.5625" rx="1" ry="1" style="stroke: #E3ECEC; stroke-width: 1.5;" width="487" x="6" y="8.5"/><ellipse cx="199.75" cy="22.5" fill="#FFFFFF" rx="9" ry="9" style="stroke: #E3ECEC; stroke-width: 1.0;"/><path d="M201.0313,25.7969 Q200.6875,25.9688 200.3125,26.0547 Q199.9375,26.1406 199.5156,26.1406 Q198.0469,26.1406 197.2734,25.1719 Q196.5,24.2031 196.5,22.3594 Q196.5,20.5156 197.2734,19.5469 Q198.0469,18.5781 199.5156,18.5781 Q199.9375,18.5781 200.3203,18.6641 Q200.7031,18.75 201.0313,18.9219 L201.0313,20.5313 Q200.6563,20.1875 200.3047,20.0313 Q199.9531,19.875 199.5938,19.875 Q198.7969,19.875 198.3906,20.5 Q197.9844,21.125 197.9844,22.3594 Q197.9844,23.5938 198.3906,24.2188 Q198.7969,24.8438 199.5938,24.8438 Q199.9531,24.8438 200.3047,24.6875 Q200.6563,24.5313 201.0313,24.1875 L201.0313,25.7969 Z "/><text fill="#19273C" font-family="Open Sans" font-size="10" lengthAdjust="spacingAndGlyphs" textLength="92" x="217.25" y="25.9619">ParticipantRegistry</text><line style="stroke: #E3ECEC; stroke-width: 1.5;" x1="7" x2="492" y1="36.5" y2="36.5"/><line style="stroke: #E3ECEC; stroke-width: 1.5;" x1="7" x2="492" y1="44.5" y2="44.5"/><ellipse cx="16" cy="55.8203" fill="#84BE84" rx="2" ry="2" style="stroke: #038048; stroke-width: 1.0;"/><text fill="#19273C" font-family="Open Sans" font-size="10" lengthAdjust="spacingAndGlyphs" textLength="419" x="24" y="57.7822">Promise getAllParticipantRegistries(SecurityContext,ModelManager,Factory,Serializer)</text><ellipse cx="16" cy="67.4609" fill="#84BE84" rx="2" ry="2" style="stroke: #038048; stroke-width: 1.0;"/><text fill="#19273C" font-family="Open Sans" font-size="10" lengthAdjust="spacingAndGlyphs" textLength="431" x="24" y="69.4229">Promise getParticipantRegistry(SecurityContext,string,ModelManager,Factory,Serializer)</text><ellipse cx="16" cy="79.1016" fill="#84BE84" rx="2" ry="2" style="stroke: #038048; stroke-width: 1.0;"/><text fill="#19273C" font-family="Open Sans" font-size="10" lengthAdjust="spacingAndGlyphs" textLength="463" x="24" y="81.0635">Promise addParticipantRegistry(SecurityContext,string,string,ModelManager,Factory,Serializer)</text><ellipse cx="16" cy="90.7422" fill="#84BE84" rx="2" ry="2" style="stroke: #038048; stroke-width: 1.0;"/><text fill="#19273C" font-family="Open Sans" font-size="10" lengthAdjust="spacingAndGlyphs" textLength="388" x="24" y="92.7041">void constructor(string,string,SecurityContext,ModelManager,Factory,Serializer)</text><!--class Registry--><rect fill="#F8FAFA" height="44" rx="1" ry="1" style="stroke: #E3ECEC; stroke-width: 1.5;" width="68" x="215.25" y="160"/><ellipse cx="228.25" cy="174" fill="#FFFFFF" rx="9" ry="9" style="stroke: #E3ECEC; stroke-width: 1.0;"/><path d="M229.5313,177.2969 Q229.1875,177.4688 228.8125,177.5547 Q228.4375,177.6406 228.0156,177.6406 Q226.5469,177.6406 225.7734,176.6719 Q225,175.7031 225,173.8594 Q225,172.0156 225.7734,171.0469 Q226.5469,170.0781 228.0156,170.0781 Q228.4375,170.0781 228.8203,170.1641 Q229.2031,170.25 229.5313,170.4219 L229.5313,172.0313 Q229.1563,171.6875 228.8047,171.5313 Q228.4531,171.375 228.0938,171.375 Q227.2969,171.375 226.8906,172 Q226.4844,172.625 226.4844,173.8594 Q226.4844,175.0938 226.8906,175.7188 Q227.2969,176.3438 228.0938,176.3438 Q228.4531,176.3438 228.8047,176.1875 Q229.1563,176.0313 229.5313,175.6875 L229.5313,177.2969 Z "/><text fill="#19273C" font-family="Open Sans" font-size="10" lengthAdjust="spacingAndGlyphs" textLength="40" x="240.25" y="177.4619">Registry</text><line style="stroke: #E3ECEC; stroke-width: 1.5;" x1="216.25" x2="282.25" y1="188" y2="188"/><line style="stroke: #E3ECEC; stroke-width: 1.5;" x1="216.25" x2="282.25" y1="196" y2="196"/><path d="M249.25,99.778 C249.25,112.669 249.25,126.6741 249.25,139.3667 " fill="none" style="stroke: #3C6DF0; stroke-width: 1.0;"/><polygon fill="none" points="256.25,139.6615,249.25,159.6615,242.25,139.6614,256.25,139.6615" style="stroke: #3C6DF0; stroke-width: 1.0;"/></g></svg>