<?xml version="1.0" encoding="UTF-8" standalone="no"?><svg xmlns="http://www.w3.org/2000/svg" xmlns:xlink="http://www.w3.org/1999/xlink" contentScriptType="application/ecmascript" contentStyleType="text/css" height="225px" preserveAspectRatio="none" style="width:578px;height:225px;" version="1.1" viewBox="0 0 578 225" width="578px" zoomAndPan="magnify"><defs><filter height="300%" id="fudubqw" width="300%" x="-1" y="-1"><feGaussianBlur result="blurOut" stdDeviation="2.0"/><feColorMatrix in="blurOut" result="blurOut2" type="matrix" values="0 0 0 0 0 0 0 0 0 0 0 0 0 0 0 0 0 0 .4 0"/><feOffset dx="4.0" dy="4.0" in="blurOut2" result="blurOut3"/><feBlend in="SourceGraphic" in2="blurOut3" mode="normal"/></filter></defs><g><!--class ParticipantRegistry--><rect fill="#FEFECE" filter="url(#fudubqw)" height="99.2188" style="stroke: #A80036; stroke-width: 1.5;" width="563" x="6" y="8.5"/><ellipse cx="224.25" cy="24.5" fill="#ADD1B2" rx="11" ry="11" style="stroke: #A80036; stroke-width: 1.0;"/><path d="M227.2188,30.1406 Q226.6406,30.4375 226,30.5859 Q225.3594,30.7344 224.6563,30.7344 Q222.1563,30.7344 220.8359,29.0859 Q219.5156,27.4375 219.5156,24.3125 Q219.5156,21.1875 220.8359,19.5313 Q222.1563,17.875 224.6563,17.875 Q225.3594,17.875 226.0078,18.0313 Q226.6563,18.1875 227.2188,18.4844 L227.2188,21.2031 Q226.5938,20.625 226,20.3516 Q225.4063,20.0781 224.7813,20.0781 Q223.4375,20.0781 222.75,21.1484 Q222.0625,22.2188 222.0625,24.3125 Q222.0625,26.4063 222.75,27.4766 Q223.4375,28.5469 224.7813,28.5469 Q225.4063,28.5469 226,28.2734 Q226.5938,28 227.2188,27.4219 L227.2188,30.1406 Z "/><text fill="#000000" font-family="sans-serif" font-size="12" lengthAdjust="spacingAndGlyphs" textLength="118" x="244.75" y="28.6543">ParticipantRegistry</text><line style="stroke: #A80036; stroke-width: 1.5;" x1="7" x2="568" y1="40.5" y2="40.5"/><line style="stroke: #A80036; stroke-width: 1.5;" x1="7" x2="568" y1="48.5" y2="48.5"/><ellipse cx="17" cy="60.4023" fill="#84BE84" rx="3" ry="3" style="stroke: #038048; stroke-width: 1.0;"/><text fill="#000000" font-family="sans-serif" font-size="11" lengthAdjust="spacingAndGlyphs" textLength="484" x="26" y="62.7104">Promise getAllParticipantRegistries(SecurityContext,ModelManager,Factory,Serializer)</text><ellipse cx="17" cy="73.207" fill="#84BE84" rx="3" ry="3" style="stroke: #038048; stroke-width: 1.0;"/><text fill="#000000" font-family="sans-serif" font-size="11" lengthAdjust="spacingAndGlyphs" textLength="497" x="26" y="75.5151">Promise getParticipantRegistry(SecurityContext,string,ModelManager,Factory,Serializer)</text><ellipse cx="17" cy="86.0117" fill="#84BE84" rx="3" ry="3" style="stroke: #038048; stroke-width: 1.0;"/><text fill="#000000" font-family="sans-serif" font-size="11" lengthAdjust="spacingAndGlyphs" textLength="537" x="26" y="88.3198">Promise addParticipantRegistry(SecurityContext,string,string,ModelManager,Factory,Serializer)</text><ellipse cx="17" cy="98.8164" fill="#84BE84" rx="3" ry="3" style="stroke: #038048; stroke-width: 1.0;"/><text fill="#000000" font-family="sans-serif" font-size="11" lengthAdjust="spacingAndGlyphs" textLength="451" x="26" y="101.1245">void constructor(string,string,SecurityContext,ModelManager,Factory,Serializer)</text><!--class Registry--><rect fill="#FEFECE" filter="url(#fudubqw)" height="48" style="stroke: #A80036; stroke-width: 1.5;" width="82" x="246.25" y="168"/><ellipse cx="261.25" cy="184" fill="#ADD1B2" rx="11" ry="11" style="stroke: #A80036; stroke-width: 1.0;"/><path d="M264.2188,189.6406 Q263.6406,189.9375 263,190.0859 Q262.3594,190.2344 261.6563,190.2344 Q259.1563,190.2344 257.8359,188.5859 Q256.5156,186.9375 256.5156,183.8125 Q256.5156,180.6875 257.8359,179.0313 Q259.1563,177.375 261.6563,177.375 Q262.3594,177.375 263.0078,177.5313 Q263.6563,177.6875 264.2188,177.9844 L264.2188,180.7031 Q263.5938,180.125 263,179.8516 Q262.4063,179.5781 261.7813,179.5781 Q260.4375,179.5781 259.75,180.6484 Q259.0625,181.7188 259.0625,183.8125 Q259.0625,185.9063 259.75,186.9766 Q260.4375,188.0469 261.7813,188.0469 Q262.4063,188.0469 263,187.7734 Q263.5938,187.5 264.2188,186.9219 L264.2188,189.6406 Z "/><text fill="#000000" font-family="sans-serif" font-size="12" lengthAdjust="spacingAndGlyphs" textLength="50" x="275.25" y="188.1543">Registry</text><line style="stroke: #A80036; stroke-width: 1.5;" x1="247.25" x2="327.25" y1="200" y2="200"/><line style="stroke: #A80036; stroke-width: 1.5;" x1="247.25" x2="327.25" y1="208" y2="208"/><path d="M287.25,107.777 C287.25,120.7898 287.25,134.763 287.25,147.4735 " fill="none" style="stroke: #A80036; stroke-width: 1.0;"/><polygon fill="none" points="294.25,147.8894,287.25,167.8894,280.25,147.8893,294.25,147.8894" style="stroke: #A80036; stroke-width: 1.0;"/></g></svg>