<?xml version="1.0" encoding="UTF-8" standalone="no"?><svg xmlns="http://www.w3.org/2000/svg" xmlns:xlink="http://www.w3.org/1999/xlink" contentScriptType="application/ecmascript" contentStyleType="text/css" height="181px" preserveAspectRatio="none" style="width:145px;height:181px;" version="1.1" viewBox="0 0 145 181" width="145px" zoomAndPan="magnify"><defs/><g><!--class Relationship--><rect fill="#F8FAFA" height="67.2813" rx="1" ry="1" style="stroke: #E3ECEC; stroke-width: 1.5;" width="138" x="6" y="8.5"/><ellipse cx="42.4" cy="22.5" fill="#FFFFFF" rx="9" ry="9" style="stroke: #E3ECEC; stroke-width: 1.0;"/><path d="M43.6813,25.7969 Q43.3375,25.9688 42.9625,26.0547 Q42.5875,26.1406 42.1656,26.1406 Q40.6969,26.1406 39.9234,25.1719 Q39.15,24.2031 39.15,22.3594 Q39.15,20.5156 39.9234,19.5469 Q40.6969,18.5781 42.1656,18.5781 Q42.5875,18.5781 42.9703,18.6641 Q43.3531,18.75 43.6813,18.9219 L43.6813,20.5313 Q43.3063,20.1875 42.9547,20.0313 Q42.6031,19.875 42.2438,19.875 Q41.4469,19.875 41.0406,20.5 Q40.6344,21.125 40.6344,22.3594 Q40.6344,23.5938 41.0406,24.2188 Q41.4469,24.8438 42.2438,24.8438 Q42.6031,24.8438 42.9547,24.6875 Q43.3063,24.5313 43.6813,24.1875 L43.6813,25.7969 Z "/><text fill="#19273C" font-family="Open Sans" font-size="10" lengthAdjust="spacingAndGlyphs" textLength="58" x="59.6" y="25.9619">Relationship</text><line style="stroke: #E3ECEC; stroke-width: 1.5;" x1="7" x2="143" y1="36.5" y2="36.5"/><line style="stroke: #E3ECEC; stroke-width: 1.5;" x1="7" x2="143" y1="44.5" y2="44.5"/><ellipse cx="16" cy="55.8203" fill="#84BE84" rx="2" ry="2" style="stroke: #038048; stroke-width: 1.0;"/><text fill="#19273C" font-family="Open Sans" font-size="10" lengthAdjust="spacingAndGlyphs" textLength="79" x="24" y="57.7822">String toString()</text><ellipse cx="16" cy="67.4609" fill="#84BE84" rx="2" ry="2" style="stroke: #038048; stroke-width: 1.0;"/><text fill="#19273C" font-family="Open Sans" font-size="10" lengthAdjust="spacingAndGlyphs" textLength="114" x="24" y="69.4229">boolean isRelationship()</text><!--class Identifiable--><rect fill="#F8FAFA" height="44" rx="1" ry="1" style="stroke: #E3ECEC; stroke-width: 1.5;" width="81" x="34.75" y="136"/><ellipse cx="47.75" cy="150" fill="#FFFFFF" rx="9" ry="9" style="stroke: #E3ECEC; stroke-width: 1.0;"/><path d="M49.0313,153.2969 Q48.6875,153.4688 48.3125,153.5547 Q47.9375,153.6406 47.5156,153.6406 Q46.0469,153.6406 45.2734,152.6719 Q44.5,151.7031 44.5,149.8594 Q44.5,148.0156 45.2734,147.0469 Q46.0469,146.0781 47.5156,146.0781 Q47.9375,146.0781 48.3203,146.1641 Q48.7031,146.25 49.0313,146.4219 L49.0313,148.0313 Q48.6563,147.6875 48.3047,147.5313 Q47.9531,147.375 47.5938,147.375 Q46.7969,147.375 46.3906,148 Q45.9844,148.625 45.9844,149.8594 Q45.9844,151.0938 46.3906,151.7188 Q46.7969,152.3438 47.5938,152.3438 Q47.9531,152.3438 48.3047,152.1875 Q48.6563,152.0313 49.0313,151.6875 L49.0313,153.2969 Z "/><text fill="#19273C" font-family="Open Sans" font-size="10" lengthAdjust="spacingAndGlyphs" textLength="53" x="59.75" y="153.4619">Identifiable</text><line style="stroke: #E3ECEC; stroke-width: 1.5;" x1="35.75" x2="114.75" y1="164" y2="164"/><line style="stroke: #E3ECEC; stroke-width: 1.5;" x1="35.75" x2="114.75" y1="172" y2="172"/><path d="M75,75.668 C75,88.0598 75,102.3407 75,115.4438 " fill="none" style="stroke: #3C6DF0; stroke-width: 1.0;"/><polygon fill="none" points="82.0001,115.8424,75,135.8423,68.0001,115.8423,82.0001,115.8424" style="stroke: #3C6DF0; stroke-width: 1.0;"/></g></svg>