<?xml version="1.0" encoding="UTF-8" standalone="no"?><svg xmlns="http://www.w3.org/2000/svg" xmlns:xlink="http://www.w3.org/1999/xlink" contentScriptType="application/ecmascript" contentStyleType="text/css" height="181px" preserveAspectRatio="none" style="width:132px;height:181px;" version="1.1" viewBox="0 0 132 181" width="132px" zoomAndPan="magnify"><defs/><g><!--class Resource--><rect fill="#F8FAFA" height="67.2813" rx="1" ry="1" style="stroke: #E3ECEC; stroke-width: 1.5;" width="125" x="6" y="8.5"/><ellipse cx="42.4" cy="22.5" fill="#FFFFFF" rx="9" ry="9" style="stroke: #E3ECEC; stroke-width: 1.0;"/><path d="M43.6813,25.7969 Q43.3375,25.9688 42.9625,26.0547 Q42.5875,26.1406 42.1656,26.1406 Q40.6969,26.1406 39.9234,25.1719 Q39.15,24.2031 39.15,22.3594 Q39.15,20.5156 39.9234,19.5469 Q40.6969,18.5781 42.1656,18.5781 Q42.5875,18.5781 42.9703,18.6641 Q43.3531,18.75 43.6813,18.9219 L43.6813,20.5313 Q43.3063,20.1875 42.9547,20.0313 Q42.6031,19.875 42.2438,19.875 Q41.4469,19.875 41.0406,20.5 Q40.6344,21.125 40.6344,22.3594 Q40.6344,23.5938 41.0406,24.2188 Q41.4469,24.8438 42.2438,24.8438 Q42.6031,24.8438 42.9547,24.6875 Q43.3063,24.5313 43.6813,24.1875 L43.6813,25.7969 Z "/><text fill="#19273C" font-family="Open Sans" font-size="10" lengthAdjust="spacingAndGlyphs" textLength="45" x="59.6" y="25.9619">Resource</text><line style="stroke: #E3ECEC; stroke-width: 1.5;" x1="7" x2="130" y1="36.5" y2="36.5"/><line style="stroke: #E3ECEC; stroke-width: 1.5;" x1="7" x2="130" y1="44.5" y2="44.5"/><ellipse cx="16" cy="55.8203" fill="#84BE84" rx="2" ry="2" style="stroke: #038048; stroke-width: 1.0;"/><text fill="#19273C" font-family="Open Sans" font-size="10" lengthAdjust="spacingAndGlyphs" textLength="79" x="24" y="57.7822">String toString()</text><ellipse cx="16" cy="67.4609" fill="#84BE84" rx="2" ry="2" style="stroke: #038048; stroke-width: 1.0;"/><text fill="#19273C" font-family="Open Sans" font-size="10" lengthAdjust="spacingAndGlyphs" textLength="101" x="24" y="69.4229">boolean isResource()</text><!--class Identifiable--><rect fill="#F8FAFA" height="44" rx="1" ry="1" style="stroke: #E3ECEC; stroke-width: 1.5;" width="81" x="28" y="136"/><ellipse cx="41" cy="150" fill="#FFFFFF" rx="9" ry="9" style="stroke: #E3ECEC; stroke-width: 1.0;"/><path d="M42.2813,153.2969 Q41.9375,153.4688 41.5625,153.5547 Q41.1875,153.6406 40.7656,153.6406 Q39.2969,153.6406 38.5234,152.6719 Q37.75,151.7031 37.75,149.8594 Q37.75,148.0156 38.5234,147.0469 Q39.2969,146.0781 40.7656,146.0781 Q41.1875,146.0781 41.5703,146.1641 Q41.9531,146.25 42.2813,146.4219 L42.2813,148.0313 Q41.9063,147.6875 41.5547,147.5313 Q41.2031,147.375 40.8438,147.375 Q40.0469,147.375 39.6406,148 Q39.2344,148.625 39.2344,149.8594 Q39.2344,151.0938 39.6406,151.7188 Q40.0469,152.3438 40.8438,152.3438 Q41.2031,152.3438 41.5547,152.1875 Q41.9063,152.0313 42.2813,151.6875 L42.2813,153.2969 Z "/><text fill="#19273C" font-family="Open Sans" font-size="10" lengthAdjust="spacingAndGlyphs" textLength="53" x="53" y="153.4619">Identifiable</text><line style="stroke: #E3ECEC; stroke-width: 1.5;" x1="29" x2="108" y1="164" y2="164"/><line style="stroke: #E3ECEC; stroke-width: 1.5;" x1="29" x2="108" y1="172" y2="172"/><path d="M68.25,75.668 C68.25,88.0598 68.25,102.3407 68.25,115.4438 " fill="none" style="stroke: #3C6DF0; stroke-width: 1.0;"/><polygon fill="none" points="75.2501,115.8424,68.25,135.8423,61.2501,115.8423,75.2501,115.8424" style="stroke: #3C6DF0; stroke-width: 1.0;"/></g></svg>