<?xml version="1.0" encoding="UTF-8" standalone="no"?><svg xmlns="http://www.w3.org/2000/svg" xmlns:xlink="http://www.w3.org/1999/xlink" contentScriptType="application/ecmascript" contentStyleType="text/css" height="116px" preserveAspectRatio="none" style="width:241px;height:116px;" version="1.1" viewBox="0 0 241 116" width="241px" zoomAndPan="magnify"><defs><filter height="300%" id="fa3qr58" width="300%" x="-1" y="-1"><feGaussianBlur result="blurOut" stdDeviation="2.0"/><feColorMatrix in="blurOut" result="blurOut2" type="matrix" values="0 0 0 0 0 0 0 0 0 0 0 0 0 0 0 0 0 0 .4 0"/><feOffset dx="4.0" dy="4.0" in="blurOut2" result="blurOut3"/><feBlend in="SourceGraphic" in2="blurOut3" mode="normal"/></filter></defs><g><!--class SecurityContext--><rect fill="#FEFECE" filter="url(#fa3qr58)" height="99.2188" style="stroke: #A80036; stroke-width: 1.5;" width="226" x="6" y="8.5"/><ellipse cx="65.75" cy="24.5" fill="#ADD1B2" rx="11" ry="11" style="stroke: #A80036; stroke-width: 1.0;"/><path d="M68.7188,30.1406 Q68.1406,30.4375 67.5,30.5859 Q66.8594,30.7344 66.1563,30.7344 Q63.6563,30.7344 62.3359,29.0859 Q61.0156,27.4375 61.0156,24.3125 Q61.0156,21.1875 62.3359,19.5313 Q63.6563,17.875 66.1563,17.875 Q66.8594,17.875 67.5078,18.0313 Q68.1563,18.1875 68.7188,18.4844 L68.7188,21.2031 Q68.0938,20.625 67.5,20.3516 Q66.9063,20.0781 66.2813,20.0781 Q64.9375,20.0781 64.25,21.1484 Q63.5625,22.2188 63.5625,24.3125 Q63.5625,26.4063 64.25,27.4766 Q64.9375,28.5469 66.2813,28.5469 Q66.9063,28.5469 67.5,28.2734 Q68.0938,28 68.7188,27.4219 L68.7188,30.1406 Z "/><text fill="#000000" font-family="sans-serif" font-size="12" lengthAdjust="spacingAndGlyphs" textLength="98" x="86.25" y="28.6543">SecurityContext</text><line style="stroke: #A80036; stroke-width: 1.5;" x1="7" x2="231" y1="40.5" y2="40.5"/><line style="stroke: #A80036; stroke-width: 1.5;" x1="7" x2="231" y1="48.5" y2="48.5"/><ellipse cx="17" cy="60.4023" fill="#84BE84" rx="3" ry="3" style="stroke: #038048; stroke-width: 1.0;"/><text fill="#000000" font-family="sans-serif" font-size="11" lengthAdjust="spacingAndGlyphs" textLength="200" x="26" y="62.7104">void constructor(Connection,string)</text><ellipse cx="17" cy="73.207" fill="#84BE84" rx="3" ry="3" style="stroke: #038048; stroke-width: 1.0;"/><text fill="#000000" font-family="sans-serif" font-size="11" lengthAdjust="spacingAndGlyphs" textLength="156" x="26" y="75.5151">Connection getConnection()</text><ellipse cx="17" cy="86.0117" fill="#84BE84" rx="3" ry="3" style="stroke: #038048; stroke-width: 1.0;"/><text fill="#000000" font-family="sans-serif" font-size="11" lengthAdjust="spacingAndGlyphs" textLength="90" x="26" y="88.3198">string getUser()</text><ellipse cx="17" cy="98.8164" fill="#84BE84" rx="3" ry="3" style="stroke: #038048; stroke-width: 1.0;"/><text fill="#000000" font-family="sans-serif" font-size="11" lengthAdjust="spacingAndGlyphs" textLength="87" x="26" y="101.1245">Object toJSON()</text></g></svg>