<?xml version="1.0" encoding="UTF-8" standalone="no"?><svg xmlns="http://www.w3.org/2000/svg" xmlns:xlink="http://www.w3.org/1999/xlink" contentScriptType="application/ecmascript" contentStyleType="text/css" height="309px" preserveAspectRatio="none" style="width:174px;height:309px;" version="1.1" viewBox="0 0 174 309" width="174px" zoomAndPan="magnify"><defs><filter height="300%" id="fwrsne2" width="300%" x="-1" y="-1"><feGaussianBlur result="blurOut" stdDeviation="2.0"/><feColorMatrix in="blurOut" result="blurOut2" type="matrix" values="0 0 0 0 0 0 0 0 0 0 0 0 0 0 0 0 0 0 .4 0"/><feOffset dx="4.0" dy="4.0" in="blurOut2" result="blurOut3"/><feBlend in="SourceGraphic" in2="blurOut3" mode="normal"/></filter></defs><g><!--class BaseException--><rect fill="#FEFECE" filter="url(#fwrsne2)" height="60.8047" style="stroke: #A80036; stroke-width: 1.5;" width="159" x="6" y="130.5"/><ellipse cx="36.75" cy="146.5" fill="#ADD1B2" rx="11" ry="11" style="stroke: #A80036; stroke-width: 1.0;"/><path d="M39.7188,152.1406 Q39.1406,152.4375 38.5,152.5859 Q37.8594,152.7344 37.1563,152.7344 Q34.6563,152.7344 33.3359,151.0859 Q32.0156,149.4375 32.0156,146.3125 Q32.0156,143.1875 33.3359,141.5313 Q34.6563,139.875 37.1563,139.875 Q37.8594,139.875 38.5078,140.0313 Q39.1563,140.1875 39.7188,140.4844 L39.7188,143.2031 Q39.0938,142.625 38.5,142.3516 Q37.9063,142.0781 37.2813,142.0781 Q35.9375,142.0781 35.25,143.1484 Q34.5625,144.2188 34.5625,146.3125 Q34.5625,148.4063 35.25,149.4766 Q35.9375,150.5469 37.2813,150.5469 Q37.9063,150.5469 38.5,150.2734 Q39.0938,150 39.7188,149.4219 L39.7188,152.1406 Z "/><text fill="#000000" font-family="sans-serif" font-size="12" lengthAdjust="spacingAndGlyphs" textLength="92" x="54.25" y="150.6543">BaseException</text><line style="stroke: #A80036; stroke-width: 1.5;" x1="7" x2="164" y1="162.5" y2="162.5"/><line style="stroke: #A80036; stroke-width: 1.5;" x1="7" x2="164" y1="170.5" y2="170.5"/><ellipse cx="17" cy="182.4023" fill="#84BE84" rx="3" ry="3" style="stroke: #038048; stroke-width: 1.0;"/><text fill="#000000" font-family="sans-serif" font-size="11" lengthAdjust="spacingAndGlyphs" textLength="133" x="26" y="184.7104">void constructor(string)</text><!--class Error--><rect fill="#FEFECE" filter="url(#fwrsne2)" height="48" style="stroke: #A80036; stroke-width: 1.5;" width="63" x="54" y="252"/><ellipse cx="69" cy="268" fill="#ADD1B2" rx="11" ry="11" style="stroke: #A80036; stroke-width: 1.0;"/><path d="M71.9688,273.6406 Q71.3906,273.9375 70.75,274.0859 Q70.1094,274.2344 69.4063,274.2344 Q66.9063,274.2344 65.5859,272.5859 Q64.2656,270.9375 64.2656,267.8125 Q64.2656,264.6875 65.5859,263.0313 Q66.9063,261.375 69.4063,261.375 Q70.1094,261.375 70.7578,261.5313 Q71.4063,261.6875 71.9688,261.9844 L71.9688,264.7031 Q71.3438,264.125 70.75,263.8516 Q70.1563,263.5781 69.5313,263.5781 Q68.1875,263.5781 67.5,264.6484 Q66.8125,265.7188 66.8125,267.8125 Q66.8125,269.9063 67.5,270.9766 Q68.1875,272.0469 69.5313,272.0469 Q70.1563,272.0469 70.75,271.7734 Q71.3438,271.5 71.9688,270.9219 L71.9688,273.6406 Z "/><text fill="#000000" font-family="sans-serif" font-size="12" lengthAdjust="spacingAndGlyphs" textLength="31" x="83" y="272.1543">Error</text><line style="stroke: #A80036; stroke-width: 1.5;" x1="55" x2="116" y1="284" y2="284"/><line style="stroke: #A80036; stroke-width: 1.5;" x1="55" x2="116" y1="292" y2="292"/><!--class SecurityException--><rect fill="#FEFECE" filter="url(#fwrsne2)" height="60.8047" style="stroke: #A80036; stroke-width: 1.5;" width="159" x="6" y="8.5"/><ellipse cx="28.2" cy="24.5" fill="#ADD1B2" rx="11" ry="11" style="stroke: #A80036; stroke-width: 1.0;"/><path d="M31.1688,30.1406 Q30.5906,30.4375 29.95,30.5859 Q29.3094,30.7344 28.6063,30.7344 Q26.1063,30.7344 24.7859,29.0859 Q23.4656,27.4375 23.4656,24.3125 Q23.4656,21.1875 24.7859,19.5313 Q26.1063,17.875 28.6063,17.875 Q29.3094,17.875 29.9578,18.0313 Q30.6063,18.1875 31.1688,18.4844 L31.1688,21.2031 Q30.5438,20.625 29.95,20.3516 Q29.3563,20.0781 28.7313,20.0781 Q27.3875,20.0781 26.7,21.1484 Q26.0125,22.2188 26.0125,24.3125 Q26.0125,26.4063 26.7,27.4766 Q27.3875,28.5469 28.7313,28.5469 Q29.3563,28.5469 29.95,28.2734 Q30.5438,28 31.1688,27.4219 L31.1688,30.1406 Z "/><text fill="#000000" font-family="sans-serif" font-size="12" lengthAdjust="spacingAndGlyphs" textLength="111" x="43.8" y="28.6543">SecurityException</text><line style="stroke: #A80036; stroke-width: 1.5;" x1="7" x2="164" y1="40.5" y2="40.5"/><line style="stroke: #A80036; stroke-width: 1.5;" x1="7" x2="164" y1="48.5" y2="48.5"/><ellipse cx="17" cy="60.4023" fill="#84BE84" rx="3" ry="3" style="stroke: #038048; stroke-width: 1.0;"/><text fill="#000000" font-family="sans-serif" font-size="11" lengthAdjust="spacingAndGlyphs" textLength="133" x="26" y="62.7104">void constructor(string)</text><path d="M85.25,191.689 C85.25,203.9011 85.25,218.2881 85.25,231.6388 " fill="none" style="stroke: #A80036; stroke-width: 1.0;"/><polygon fill="none" points="92.2501,231.9284,85.25,251.9284,78.2501,231.9283,92.2501,231.9284" style="stroke: #A80036; stroke-width: 1.0;"/><path d="M85.25,69.663 C85.25,81.778 85.25,96.134 85.25,109.793 " fill="none" style="stroke: #A80036; stroke-width: 1.0;"/><polygon fill="none" points="92.2501,110.262,85.25,130.262,78.2501,110.262,92.2501,110.262" style="stroke: #A80036; stroke-width: 1.0;"/></g></svg>