<?xml version="1.0" encoding="UTF-8" standalone="no"?><svg xmlns="http://www.w3.org/2000/svg" xmlns:xlink="http://www.w3.org/1999/xlink" contentScriptType="application/ecmascript" contentStyleType="text/css" height="100px" preserveAspectRatio="none" style="width:202px;height:100px;" version="1.1" viewBox="0 0 202 100" width="202px" zoomAndPan="magnify"><defs/><g><!--class SecurityContext--><rect fill="#F8FAFA" height="90.5625" rx="1" ry="1" style="stroke: #E3ECEC; stroke-width: 1.5;" width="195" x="6" y="8.5"/><ellipse cx="59.75" cy="22.5" fill="#FFFFFF" rx="9" ry="9" style="stroke: #E3ECEC; stroke-width: 1.0;"/><path d="M61.0313,25.7969 Q60.6875,25.9688 60.3125,26.0547 Q59.9375,26.1406 59.5156,26.1406 Q58.0469,26.1406 57.2734,25.1719 Q56.5,24.2031 56.5,22.3594 Q56.5,20.5156 57.2734,19.5469 Q58.0469,18.5781 59.5156,18.5781 Q59.9375,18.5781 60.3203,18.6641 Q60.7031,18.75 61.0313,18.9219 L61.0313,20.5313 Q60.6563,20.1875 60.3047,20.0313 Q59.9531,19.875 59.5938,19.875 Q58.7969,19.875 58.3906,20.5 Q57.9844,21.125 57.9844,22.3594 Q57.9844,23.5938 58.3906,24.2188 Q58.7969,24.8438 59.5938,24.8438 Q59.9531,24.8438 60.3047,24.6875 Q60.6563,24.5313 61.0313,24.1875 L61.0313,25.7969 Z "/><text fill="#19273C" font-family="Open Sans" font-size="10" lengthAdjust="spacingAndGlyphs" textLength="80" x="77.25" y="25.9619">SecurityContext</text><line style="stroke: #E3ECEC; stroke-width: 1.5;" x1="7" x2="200" y1="36.5" y2="36.5"/><line style="stroke: #E3ECEC; stroke-width: 1.5;" x1="7" x2="200" y1="44.5" y2="44.5"/><ellipse cx="16" cy="55.8203" fill="#84BE84" rx="2" ry="2" style="stroke: #038048; stroke-width: 1.0;"/><text fill="#19273C" font-family="Open Sans" font-size="10" lengthAdjust="spacingAndGlyphs" textLength="171" x="24" y="57.7822">void constructor(Connection,string)</text><ellipse cx="16" cy="67.4609" fill="#84BE84" rx="2" ry="2" style="stroke: #038048; stroke-width: 1.0;"/><text fill="#19273C" font-family="Open Sans" font-size="10" lengthAdjust="spacingAndGlyphs" textLength="137" x="24" y="69.4229">Connection getConnection()</text><ellipse cx="16" cy="79.1016" fill="#84BE84" rx="2" ry="2" style="stroke: #038048; stroke-width: 1.0;"/><text fill="#19273C" font-family="Open Sans" font-size="10" lengthAdjust="spacingAndGlyphs" textLength="77" x="24" y="81.0635">string getUser()</text><ellipse cx="16" cy="90.7422" fill="#84BE84" rx="2" ry="2" style="stroke: #038048; stroke-width: 1.0;"/><text fill="#19273C" font-family="Open Sans" font-size="10" lengthAdjust="spacingAndGlyphs" textLength="78" x="24" y="92.7041">Object toJSON()</text></g></svg>