<?xml version="1.0" encoding="UTF-8" standalone="no"?><svg xmlns="http://www.w3.org/2000/svg" xmlns:xlink="http://www.w3.org/1999/xlink" contentScriptType="application/ecmascript" contentStyleType="text/css" height="211px" preserveAspectRatio="none" style="width:549px;height:211px;" version="1.1" viewBox="0 0 549 211" width="549px" zoomAndPan="magnify"><defs><filter height="300%" id="fpf7uw8" width="300%" x="-1" y="-1"><feGaussianBlur result="blurOut" stdDeviation="2.0"/><feColorMatrix in="blurOut" result="blurOut2" type="matrix" values="0 0 0 0 0 0 0 0 0 0 0 0 0 0 0 0 0 0 .4 0"/><feOffset dx="4.0" dy="4.0" in="blurOut2" result="blurOut3"/><feBlend in="SourceGraphic" in2="blurOut3" mode="normal"/></filter></defs><g><!--class Resource--><rect fill="#FEFECE" filter="url(#fpf7uw8)" height="73.6094" style="stroke: #A80036; stroke-width: 1.5;" width="146" x="6" y="14"/><ellipse cx="45.75" cy="30" fill="#ADD1B2" rx="11" ry="11" style="stroke: #A80036; stroke-width: 1.0;"/><path d="M48.7188,35.6406 Q48.1406,35.9375 47.5,36.0859 Q46.8594,36.2344 46.1563,36.2344 Q43.6563,36.2344 42.3359,34.5859 Q41.0156,32.9375 41.0156,29.8125 Q41.0156,26.6875 42.3359,25.0313 Q43.6563,23.375 46.1563,23.375 Q46.8594,23.375 47.5078,23.5313 Q48.1563,23.6875 48.7188,23.9844 L48.7188,26.7031 Q48.0938,26.125 47.5,25.8516 Q46.9063,25.5781 46.2813,25.5781 Q44.9375,25.5781 44.25,26.6484 Q43.5625,27.7188 43.5625,29.8125 Q43.5625,31.9063 44.25,32.9766 Q44.9375,34.0469 46.2813,34.0469 Q46.9063,34.0469 47.5,33.7734 Q48.0938,33.5 48.7188,32.9219 L48.7188,35.6406 Z "/><text fill="#000000" font-family="sans-serif" font-size="12" lengthAdjust="spacingAndGlyphs" textLength="59" x="65.25" y="34.1543">Resource</text><line style="stroke: #A80036; stroke-width: 1.5;" x1="7" x2="151" y1="46" y2="46"/><line style="stroke: #A80036; stroke-width: 1.5;" x1="7" x2="151" y1="54" y2="54"/><ellipse cx="17" cy="65.9023" fill="#84BE84" rx="3" ry="3" style="stroke: #038048; stroke-width: 1.0;"/><text fill="#000000" font-family="sans-serif" font-size="11" lengthAdjust="spacingAndGlyphs" textLength="91" x="26" y="68.2104">String toString()</text><ellipse cx="17" cy="78.707" fill="#84BE84" rx="3" ry="3" style="stroke: #038048; stroke-width: 1.0;"/><text fill="#000000" font-family="sans-serif" font-size="11" lengthAdjust="spacingAndGlyphs" textLength="120" x="26" y="81.0151">boolean isResource()</text><!--class Identifiable--><rect fill="#FEFECE" filter="url(#fpf7uw8)" height="48" style="stroke: #A80036; stroke-width: 1.5;" width="101" x="28.75" y="154"/><ellipse cx="43.75" cy="170" fill="#ADD1B2" rx="11" ry="11" style="stroke: #A80036; stroke-width: 1.0;"/><path d="M46.7188,175.6406 Q46.1406,175.9375 45.5,176.0859 Q44.8594,176.2344 44.1563,176.2344 Q41.6563,176.2344 40.3359,174.5859 Q39.0156,172.9375 39.0156,169.8125 Q39.0156,166.6875 40.3359,165.0313 Q41.6563,163.375 44.1563,163.375 Q44.8594,163.375 45.5078,163.5313 Q46.1563,163.6875 46.7188,163.9844 L46.7188,166.7031 Q46.0938,166.125 45.5,165.8516 Q44.9063,165.5781 44.2813,165.5781 Q42.9375,165.5781 42.25,166.6484 Q41.5625,167.7188 41.5625,169.8125 Q41.5625,171.9063 42.25,172.9766 Q42.9375,174.0469 44.2813,174.0469 Q44.9063,174.0469 45.5,173.7734 Q46.0938,173.5 46.7188,172.9219 L46.7188,175.6406 Z "/><text fill="#000000" font-family="sans-serif" font-size="12" lengthAdjust="spacingAndGlyphs" textLength="69" x="57.75" y="174.1543">Identifiable</text><line style="stroke: #A80036; stroke-width: 1.5;" x1="29.75" x2="128.75" y1="186" y2="186"/><line style="stroke: #A80036; stroke-width: 1.5;" x1="29.75" x2="128.75" y1="194" y2="194"/><!--class Serializer--><rect fill="#FEFECE" filter="url(#fpf7uw8)" height="86.4141" style="stroke: #A80036; stroke-width: 1.5;" width="353" x="187.75" y="8"/><ellipse cx="332" cy="24" fill="#ADD1B2" rx="11" ry="11" style="stroke: #A80036; stroke-width: 1.0;"/><path d="M334.9688,29.6406 Q334.3906,29.9375 333.75,30.0859 Q333.1094,30.2344 332.4063,30.2344 Q329.9063,30.2344 328.5859,28.5859 Q327.2656,26.9375 327.2656,23.8125 Q327.2656,20.6875 328.5859,19.0313 Q329.9063,17.375 332.4063,17.375 Q333.1094,17.375 333.7578,17.5313 Q334.4063,17.6875 334.9688,17.9844 L334.9688,20.7031 Q334.3438,20.125 333.75,19.8516 Q333.1563,19.5781 332.5313,19.5781 Q331.1875,19.5781 330.5,20.6484 Q329.8125,21.7188 329.8125,23.8125 Q329.8125,25.9063 330.5,26.9766 Q331.1875,28.0469 332.5313,28.0469 Q333.1563,28.0469 333.75,27.7734 Q334.3438,27.5 334.9688,26.9219 L334.9688,29.6406 Z "/><text fill="#000000" font-family="sans-serif" font-size="12" lengthAdjust="spacingAndGlyphs" textLength="56" x="352.5" y="28.1543">Serializer</text><line style="stroke: #A80036; stroke-width: 1.5;" x1="188.75" x2="539.75" y1="40" y2="40"/><line style="stroke: #A80036; stroke-width: 1.5;" x1="188.75" x2="539.75" y1="48" y2="48"/><ellipse cx="198.75" cy="59.9023" fill="#84BE84" rx="3" ry="3" style="stroke: #038048; stroke-width: 1.0;"/><text fill="#000000" font-family="sans-serif" font-size="11" lengthAdjust="spacingAndGlyphs" textLength="227" x="207.75" y="62.2104">void constructor(Factory,ModelManager)</text><ellipse cx="198.75" cy="72.707" fill="#84BE84" rx="3" ry="3" style="stroke: #038048; stroke-width: 1.0;"/><text fill="#000000" font-family="sans-serif" font-size="11" lengthAdjust="spacingAndGlyphs" textLength="327" x="207.75" y="75.0151">Object toJSON(Resource,Object,boolean,boolean,boolean)</text><ellipse cx="198.75" cy="85.5117" fill="#84BE84" rx="3" ry="3" style="stroke: #038048; stroke-width: 1.0;"/><text fill="#000000" font-family="sans-serif" font-size="11" lengthAdjust="spacingAndGlyphs" textLength="245" x="207.75" y="87.8198">Resource fromJSON(Object,Object,boolean)</text><path d="M79,88.155 C79,102.398 79,118.875 79,133.7423 " fill="none" style="stroke: #A80036; stroke-width: 1.0;"/><polygon fill="none" points="86.0001,133.9252,79,153.9251,72.0001,133.9251,86.0001,133.9252" style="stroke: #A80036; stroke-width: 1.0;"/></g></svg>