<?xml version="1.0" encoding="UTF-8" standalone="no"?><svg xmlns="http://www.w3.org/2000/svg" xmlns:xlink="http://www.w3.org/1999/xlink" contentScriptType="application/ecmascript" contentStyleType="text/css" height="193px" preserveAspectRatio="none" style="width:471px;height:193px;" version="1.1" viewBox="0 0 471 193" width="471px" zoomAndPan="magnify"><defs/><g><!--class Resource--><rect fill="#F8FAFA" height="67.2813" rx="1" ry="1" style="stroke: #E3ECEC; stroke-width: 1.5;" width="125" x="6" y="14.5"/><ellipse cx="42.4" cy="28.5" fill="#FFFFFF" rx="9" ry="9" style="stroke: #E3ECEC; stroke-width: 1.0;"/><path d="M43.6813,31.7969 Q43.3375,31.9688 42.9625,32.0547 Q42.5875,32.1406 42.1656,32.1406 Q40.6969,32.1406 39.9234,31.1719 Q39.15,30.2031 39.15,28.3594 Q39.15,26.5156 39.9234,25.5469 Q40.6969,24.5781 42.1656,24.5781 Q42.5875,24.5781 42.9703,24.6641 Q43.3531,24.75 43.6813,24.9219 L43.6813,26.5313 Q43.3063,26.1875 42.9547,26.0313 Q42.6031,25.875 42.2438,25.875 Q41.4469,25.875 41.0406,26.5 Q40.6344,27.125 40.6344,28.3594 Q40.6344,29.5938 41.0406,30.2188 Q41.4469,30.8438 42.2438,30.8438 Q42.6031,30.8438 42.9547,30.6875 Q43.3063,30.5313 43.6813,30.1875 L43.6813,31.7969 Z "/><text fill="#19273C" font-family="Open Sans" font-size="10" lengthAdjust="spacingAndGlyphs" textLength="45" x="59.6" y="31.9619">Resource</text><line style="stroke: #E3ECEC; stroke-width: 1.5;" x1="7" x2="130" y1="42.5" y2="42.5"/><line style="stroke: #E3ECEC; stroke-width: 1.5;" x1="7" x2="130" y1="50.5" y2="50.5"/><ellipse cx="16" cy="61.8203" fill="#84BE84" rx="2" ry="2" style="stroke: #038048; stroke-width: 1.0;"/><text fill="#19273C" font-family="Open Sans" font-size="10" lengthAdjust="spacingAndGlyphs" textLength="79" x="24" y="63.7822">String toString()</text><ellipse cx="16" cy="73.4609" fill="#84BE84" rx="2" ry="2" style="stroke: #038048; stroke-width: 1.0;"/><text fill="#19273C" font-family="Open Sans" font-size="10" lengthAdjust="spacingAndGlyphs" textLength="101" x="24" y="75.4229">boolean isResource()</text><!--class Identifiable--><rect fill="#F8FAFA" height="44" rx="1" ry="1" style="stroke: #E3ECEC; stroke-width: 1.5;" width="81" x="28" y="148"/><ellipse cx="41" cy="162" fill="#FFFFFF" rx="9" ry="9" style="stroke: #E3ECEC; stroke-width: 1.0;"/><path d="M42.2813,165.2969 Q41.9375,165.4688 41.5625,165.5547 Q41.1875,165.6406 40.7656,165.6406 Q39.2969,165.6406 38.5234,164.6719 Q37.75,163.7031 37.75,161.8594 Q37.75,160.0156 38.5234,159.0469 Q39.2969,158.0781 40.7656,158.0781 Q41.1875,158.0781 41.5703,158.1641 Q41.9531,158.25 42.2813,158.4219 L42.2813,160.0313 Q41.9063,159.6875 41.5547,159.5313 Q41.2031,159.375 40.8438,159.375 Q40.0469,159.375 39.6406,160 Q39.2344,160.625 39.2344,161.8594 Q39.2344,163.0938 39.6406,163.7188 Q40.0469,164.3438 40.8438,164.3438 Q41.2031,164.3438 41.5547,164.1875 Q41.9063,164.0313 42.2813,163.6875 L42.2813,165.2969 Z "/><text fill="#19273C" font-family="Open Sans" font-size="10" lengthAdjust="spacingAndGlyphs" textLength="53" x="53" y="165.4619">Identifiable</text><line style="stroke: #E3ECEC; stroke-width: 1.5;" x1="29" x2="108" y1="176" y2="176"/><line style="stroke: #E3ECEC; stroke-width: 1.5;" x1="29" x2="108" y1="184" y2="184"/><!--class Serializer--><rect fill="#F8FAFA" height="78.9219" rx="1" ry="1" style="stroke: #E3ECEC; stroke-width: 1.5;" width="304" x="166.25" y="8.5"/><ellipse cx="292.5" cy="22.5" fill="#FFFFFF" rx="9" ry="9" style="stroke: #E3ECEC; stroke-width: 1.0;"/><path d="M293.7813,25.7969 Q293.4375,25.9688 293.0625,26.0547 Q292.6875,26.1406 292.2656,26.1406 Q290.7969,26.1406 290.0234,25.1719 Q289.25,24.2031 289.25,22.3594 Q289.25,20.5156 290.0234,19.5469 Q290.7969,18.5781 292.2656,18.5781 Q292.6875,18.5781 293.0703,18.6641 Q293.4531,18.75 293.7813,18.9219 L293.7813,20.5313 Q293.4063,20.1875 293.0547,20.0313 Q292.7031,19.875 292.3438,19.875 Q291.5469,19.875 291.1406,20.5 Q290.7344,21.125 290.7344,22.3594 Q290.7344,23.5938 291.1406,24.2188 Q291.5469,24.8438 292.3438,24.8438 Q292.7031,24.8438 293.0547,24.6875 Q293.4063,24.5313 293.7813,24.1875 L293.7813,25.7969 Z "/><text fill="#19273C" font-family="Open Sans" font-size="10" lengthAdjust="spacingAndGlyphs" textLength="44" x="310" y="25.9619">Serializer</text><line style="stroke: #E3ECEC; stroke-width: 1.5;" x1="167.25" x2="469.25" y1="36.5" y2="36.5"/><line style="stroke: #E3ECEC; stroke-width: 1.5;" x1="167.25" x2="469.25" y1="44.5" y2="44.5"/><ellipse cx="176.25" cy="55.8203" fill="#84BE84" rx="2" ry="2" style="stroke: #038048; stroke-width: 1.0;"/><text fill="#19273C" font-family="Open Sans" font-size="10" lengthAdjust="spacingAndGlyphs" textLength="198" x="184.25" y="57.7822">void constructor(Factory,ModelManager)</text><ellipse cx="176.25" cy="67.4609" fill="#84BE84" rx="2" ry="2" style="stroke: #038048; stroke-width: 1.0;"/><text fill="#19273C" font-family="Open Sans" font-size="10" lengthAdjust="spacingAndGlyphs" textLength="280" x="184.25" y="69.4229">Object toJSON(Resource,Object,boolean,boolean,boolean)</text><ellipse cx="176.25" cy="79.1016" fill="#84BE84" rx="2" ry="2" style="stroke: #038048; stroke-width: 1.0;"/><text fill="#19273C" font-family="Open Sans" font-size="10" lengthAdjust="spacingAndGlyphs" textLength="212" x="184.25" y="81.0635">Resource fromJSON(Object,Object,boolean)</text><path d="M68.25,81.791 C68.25,95.9643 68.25,112.7081 68.25,127.7159 " fill="none" style="stroke: #3C6DF0; stroke-width: 1.0;"/><polygon fill="none" points="75.2501,127.9603,68.25,147.9603,61.2501,127.9602,75.2501,127.9603" style="stroke: #3C6DF0; stroke-width: 1.0;"/></g></svg>