<?xml version="1.0" encoding="UTF-8" standalone="no"?><svg xmlns="http://www.w3.org/2000/svg" xmlns:xlink="http://www.w3.org/1999/xlink" contentScriptType="application/ecmascript" contentStyleType="text/css" height="402px" preserveAspectRatio="none" style="width:497px;height:402px;" version="1.1" viewBox="0 0 497 402" width="497px" zoomAndPan="magnify"><defs/><g><!--class Registry--><rect fill="#F8FAFA" height="253.5313" rx="1" ry="1" style="stroke: #E3ECEC; stroke-width: 1.5;" width="442" x="30.5" y="148"/><ellipse cx="227.75" cy="162" fill="#FFFFFF" rx="9" ry="9" style="stroke: #E3ECEC; stroke-width: 1.0;"/><path d="M229.0313,165.2969 Q228.6875,165.4688 228.3125,165.5547 Q227.9375,165.6406 227.5156,165.6406 Q226.0469,165.6406 225.2734,164.6719 Q224.5,163.7031 224.5,161.8594 Q224.5,160.0156 225.2734,159.0469 Q226.0469,158.0781 227.5156,158.0781 Q227.9375,158.0781 228.3203,158.1641 Q228.7031,158.25 229.0313,158.4219 L229.0313,160.0313 Q228.6563,159.6875 228.3047,159.5313 Q227.9531,159.375 227.5938,159.375 Q226.7969,159.375 226.3906,160 Q225.9844,160.625 225.9844,161.8594 Q225.9844,163.0938 226.3906,163.7188 Q226.7969,164.3438 227.5938,164.3438 Q227.9531,164.3438 228.3047,164.1875 Q228.6563,164.0313 229.0313,163.6875 L229.0313,165.2969 Z "/><text fill="#19273C" font-family="Open Sans" font-size="10" lengthAdjust="spacingAndGlyphs" textLength="40" x="245.25" y="165.4619">Registry</text><line style="stroke: #E3ECEC; stroke-width: 1.5;" x1="31.5" x2="471.5" y1="176" y2="176"/><line style="stroke: #E3ECEC; stroke-width: 1.5;" x1="31.5" x2="471.5" y1="184" y2="184"/><ellipse cx="40.5" cy="195.3203" fill="#84BE84" rx="2" ry="2" style="stroke: #038048; stroke-width: 1.0;"/><text fill="#19273C" font-family="Open Sans" font-size="10" lengthAdjust="spacingAndGlyphs" textLength="235" x="48.5" y="197.2822">Promise getAllRegistries(SecurityContext,string)</text><ellipse cx="40.5" cy="206.9609" fill="#84BE84" rx="2" ry="2" style="stroke: #038048; stroke-width: 1.0;"/><text fill="#19273C" font-family="Open Sans" font-size="10" lengthAdjust="spacingAndGlyphs" textLength="247" x="48.5" y="208.9229">Promise getRegistry(SecurityContext,string,string)</text><ellipse cx="40.5" cy="218.6016" fill="#84BE84" rx="2" ry="2" style="stroke: #038048; stroke-width: 1.0;"/><text fill="#19273C" font-family="Open Sans" font-size="10" lengthAdjust="spacingAndGlyphs" textLength="259" x="48.5" y="220.5635">Promise existsRegistry(SecurityContext,string,string)</text><ellipse cx="40.5" cy="230.2422" fill="#84BE84" rx="2" ry="2" style="stroke: #038048; stroke-width: 1.0;"/><text fill="#19273C" font-family="Open Sans" font-size="10" lengthAdjust="spacingAndGlyphs" textLength="279" x="48.5" y="232.2041">Promise addRegistry(SecurityContext,string,string,string)</text><ellipse cx="40.5" cy="241.8828" fill="#84BE84" rx="2" ry="2" style="stroke: #038048; stroke-width: 1.0;"/><text fill="#19273C" font-family="Open Sans" font-size="10" lengthAdjust="spacingAndGlyphs" textLength="418" x="48.5" y="243.8447">void constructor(string,string,string,SecurityContext,ModelManager,Factory,Serializer)</text><ellipse cx="40.5" cy="253.5234" fill="#84BE84" rx="2" ry="2" style="stroke: #038048; stroke-width: 1.0;"/><text fill="#19273C" font-family="Open Sans" font-size="10" lengthAdjust="spacingAndGlyphs" textLength="133" x="48.5" y="255.4854">Promise addAll(Resource[])</text><ellipse cx="40.5" cy="265.1641" fill="#84BE84" rx="2" ry="2" style="stroke: #038048; stroke-width: 1.0;"/><text fill="#19273C" font-family="Open Sans" font-size="10" lengthAdjust="spacingAndGlyphs" textLength="114" x="48.5" y="267.126">Promise add(Resource)</text><ellipse cx="40.5" cy="276.8047" fill="#84BE84" rx="2" ry="2" style="stroke: #038048; stroke-width: 1.0;"/><text fill="#19273C" font-family="Open Sans" font-size="10" lengthAdjust="spacingAndGlyphs" textLength="149" x="48.5" y="278.7666">Promise updateAll(Resource[])</text><ellipse cx="40.5" cy="288.4453" fill="#84BE84" rx="2" ry="2" style="stroke: #038048; stroke-width: 1.0;"/><text fill="#19273C" font-family="Open Sans" font-size="10" lengthAdjust="spacingAndGlyphs" textLength="130" x="48.5" y="290.4072">Promise update(Resource)</text><ellipse cx="40.5" cy="300.0859" fill="#84BE84" rx="2" ry="2" style="stroke: #038048; stroke-width: 1.0;"/><text fill="#19273C" font-family="Open Sans" font-size="10" lengthAdjust="spacingAndGlyphs" textLength="100" x="48.5" y="302.0479">Promise removeAll()</text><ellipse cx="40.5" cy="311.7266" fill="#84BE84" rx="2" ry="2" style="stroke: #038048; stroke-width: 1.0;"/><text fill="#19273C" font-family="Open Sans" font-size="10" lengthAdjust="spacingAndGlyphs" textLength="89" x="48.5" y="313.6885">Promise remove()</text><ellipse cx="40.5" cy="323.3672" fill="#84BE84" rx="2" ry="2" style="stroke: #038048; stroke-width: 1.0;"/><text fill="#19273C" font-family="Open Sans" font-size="10" lengthAdjust="spacingAndGlyphs" textLength="78" x="48.5" y="325.3291">Promise getAll()</text><ellipse cx="40.5" cy="335.0078" fill="#84BE84" rx="2" ry="2" style="stroke: #038048; stroke-width: 1.0;"/><text fill="#19273C" font-family="Open Sans" font-size="10" lengthAdjust="spacingAndGlyphs" textLength="94" x="48.5" y="336.9697">Promise get(string)</text><ellipse cx="40.5" cy="346.6484" fill="#84BE84" rx="2" ry="2" style="stroke: #038048; stroke-width: 1.0;"/><text fill="#19273C" font-family="Open Sans" font-size="10" lengthAdjust="spacingAndGlyphs" textLength="106" x="48.5" y="348.6104">Promise exists(string)</text><ellipse cx="40.5" cy="358.2891" fill="#84BE84" rx="2" ry="2" style="stroke: #038048; stroke-width: 1.0;"/><text fill="#19273C" font-family="Open Sans" font-size="10" lengthAdjust="spacingAndGlyphs" textLength="96" x="48.5" y="360.251">Promise find(string)</text><ellipse cx="40.5" cy="369.9297" fill="#84BE84" rx="2" ry="2" style="stroke: #038048; stroke-width: 1.0;"/><text fill="#19273C" font-family="Open Sans" font-size="10" lengthAdjust="spacingAndGlyphs" textLength="106" x="48.5" y="371.8916">Promise query(string)</text><ellipse cx="40.5" cy="381.5703" fill="#84BE84" rx="2" ry="2" style="stroke: #038048; stroke-width: 1.0;"/><text fill="#19273C" font-family="Open Sans" font-size="10" lengthAdjust="spacingAndGlyphs" textLength="97" x="48.5" y="383.5322">Promise resolveAll()</text><ellipse cx="40.5" cy="393.2109" fill="#84BE84" rx="2" ry="2" style="stroke: #038048; stroke-width: 1.0;"/><text fill="#19273C" font-family="Open Sans" font-size="10" lengthAdjust="spacingAndGlyphs" textLength="113" x="48.5" y="395.1729">Promise resolve(string)</text><!--class TransactionRegistry--><rect fill="#F8FAFA" height="78.9219" rx="1" ry="1" style="stroke: #E3ECEC; stroke-width: 1.5;" width="490" x="6" y="8.5"/><ellipse cx="199.75" cy="22.5" fill="#FFFFFF" rx="9" ry="9" style="stroke: #E3ECEC; stroke-width: 1.0;"/><path d="M201.0313,25.7969 Q200.6875,25.9688 200.3125,26.0547 Q199.9375,26.1406 199.5156,26.1406 Q198.0469,26.1406 197.2734,25.1719 Q196.5,24.2031 196.5,22.3594 Q196.5,20.5156 197.2734,19.5469 Q198.0469,18.5781 199.5156,18.5781 Q199.9375,18.5781 200.3203,18.6641 Q200.7031,18.75 201.0313,18.9219 L201.0313,20.5313 Q200.6563,20.1875 200.3047,20.0313 Q199.9531,19.875 199.5938,19.875 Q198.7969,19.875 198.3906,20.5 Q197.9844,21.125 197.9844,22.3594 Q197.9844,23.5938 198.3906,24.2188 Q198.7969,24.8438 199.5938,24.8438 Q199.9531,24.8438 200.3047,24.6875 Q200.6563,24.5313 201.0313,24.1875 L201.0313,25.7969 Z "/><text fill="#19273C" font-family="Open Sans" font-size="10" lengthAdjust="spacingAndGlyphs" textLength="95" x="217.25" y="25.9619">TransactionRegistry</text><line style="stroke: #E3ECEC; stroke-width: 1.5;" x1="7" x2="495" y1="36.5" y2="36.5"/><line style="stroke: #E3ECEC; stroke-width: 1.5;" x1="7" x2="495" y1="44.5" y2="44.5"/><ellipse cx="16" cy="55.8203" fill="#84BE84" rx="2" ry="2" style="stroke: #038048; stroke-width: 1.0;"/><text fill="#19273C" font-family="Open Sans" font-size="10" lengthAdjust="spacingAndGlyphs" textLength="422" x="24" y="57.7822">Promise getAllTransactionRegistries(SecurityContext,ModelManager,Factory,Serializer)</text><ellipse cx="16" cy="67.4609" fill="#84BE84" rx="2" ry="2" style="stroke: #038048; stroke-width: 1.0;"/><text fill="#19273C" font-family="Open Sans" font-size="10" lengthAdjust="spacingAndGlyphs" textLength="434" x="24" y="69.4229">Promise getTransactionRegistry(SecurityContext,string,ModelManager,Factory,Serializer)</text><ellipse cx="16" cy="79.1016" fill="#84BE84" rx="2" ry="2" style="stroke: #038048; stroke-width: 1.0;"/><text fill="#19273C" font-family="Open Sans" font-size="10" lengthAdjust="spacingAndGlyphs" textLength="466" x="24" y="81.0635">Promise addTransactionRegistry(SecurityContext,string,string,ModelManager,Factory,Serializer)</text><path d="M251,87.679 C251,99.427 251,113.098 251,127.597 " fill="none" style="stroke: #3C6DF0; stroke-width: 1.0;"/><polygon fill="none" points="258,127.78,251,147.78,244,127.78,258,127.78" style="stroke: #3C6DF0; stroke-width: 1.0;"/></g></svg>