<?xml version="1.0" encoding="UTF-8" standalone="no"?><svg xmlns="http://www.w3.org/2000/svg" xmlns:xlink="http://www.w3.org/1999/xlink" contentScriptType="application/ecmascript" contentStyleType="text/css" height="193px" preserveAspectRatio="none" style="width:204px;height:193px;" version="1.1" viewBox="0 0 204 193" width="204px" zoomAndPan="magnify"><defs/><g><!--class ValidatedResource--><rect fill="#F8FAFA" height="78.9219" rx="1" ry="1" style="stroke: #E3ECEC; stroke-width: 1.5;" width="197" x="6" y="8.5"/><ellipse cx="55.75" cy="22.5" fill="#FFFFFF" rx="9" ry="9" style="stroke: #E3ECEC; stroke-width: 1.0;"/><path d="M57.0313,25.7969 Q56.6875,25.9688 56.3125,26.0547 Q55.9375,26.1406 55.5156,26.1406 Q54.0469,26.1406 53.2734,25.1719 Q52.5,24.2031 52.5,22.3594 Q52.5,20.5156 53.2734,19.5469 Q54.0469,18.5781 55.5156,18.5781 Q55.9375,18.5781 56.3203,18.6641 Q56.7031,18.75 57.0313,18.9219 L57.0313,20.5313 Q56.6563,20.1875 56.3047,20.0313 Q55.9531,19.875 55.5938,19.875 Q54.7969,19.875 54.3906,20.5 Q53.9844,21.125 53.9844,22.3594 Q53.9844,23.5938 54.3906,24.2188 Q54.7969,24.8438 55.5938,24.8438 Q55.9531,24.8438 56.3047,24.6875 Q56.6563,24.5313 57.0313,24.1875 L57.0313,25.7969 Z "/><text fill="#19273C" font-family="Open Sans" font-size="10" lengthAdjust="spacingAndGlyphs" textLength="90" x="73.25" y="25.9619">ValidatedResource</text><line style="stroke: #E3ECEC; stroke-width: 1.5;" x1="7" x2="202" y1="36.5" y2="36.5"/><line style="stroke: #E3ECEC; stroke-width: 1.5;" x1="7" x2="202" y1="44.5" y2="44.5"/><ellipse cx="16" cy="55.8203" fill="#84BE84" rx="2" ry="2" style="stroke: #038048; stroke-width: 1.0;"/><text fill="#19273C" font-family="Open Sans" font-size="10" lengthAdjust="spacingAndGlyphs" textLength="173" x="24" y="57.7822">void setPropertyValue(string,string)</text><ellipse cx="16" cy="67.4609" fill="#84BE84" rx="2" ry="2" style="stroke: #038048; stroke-width: 1.0;"/><text fill="#19273C" font-family="Open Sans" font-size="10" lengthAdjust="spacingAndGlyphs" textLength="160" x="24" y="69.4229">void addArrayValue(string,string)</text><ellipse cx="16" cy="79.1016" fill="#84BE84" rx="2" ry="2" style="stroke: #038048; stroke-width: 1.0;"/><text fill="#19273C" font-family="Open Sans" font-size="10" lengthAdjust="spacingAndGlyphs" textLength="69" x="24" y="81.0635">void validate()</text><!--class Resource--><rect fill="#F8FAFA" height="44" rx="1" ry="1" style="stroke: #E3ECEC; stroke-width: 1.5;" width="73" x="68" y="148"/><ellipse cx="81" cy="162" fill="#FFFFFF" rx="9" ry="9" style="stroke: #E3ECEC; stroke-width: 1.0;"/><path d="M82.2813,165.2969 Q81.9375,165.4688 81.5625,165.5547 Q81.1875,165.6406 80.7656,165.6406 Q79.2969,165.6406 78.5234,164.6719 Q77.75,163.7031 77.75,161.8594 Q77.75,160.0156 78.5234,159.0469 Q79.2969,158.0781 80.7656,158.0781 Q81.1875,158.0781 81.5703,158.1641 Q81.9531,158.25 82.2813,158.4219 L82.2813,160.0313 Q81.9063,159.6875 81.5547,159.5313 Q81.2031,159.375 80.8438,159.375 Q80.0469,159.375 79.6406,160 Q79.2344,160.625 79.2344,161.8594 Q79.2344,163.0938 79.6406,163.7188 Q80.0469,164.3438 80.8438,164.3438 Q81.2031,164.3438 81.5547,164.1875 Q81.9063,164.0313 82.2813,163.6875 L82.2813,165.2969 Z "/><text fill="#19273C" font-family="Open Sans" font-size="10" lengthAdjust="spacingAndGlyphs" textLength="45" x="93" y="165.4619">Resource</text><line style="stroke: #E3ECEC; stroke-width: 1.5;" x1="69" x2="140" y1="176" y2="176"/><line style="stroke: #E3ECEC; stroke-width: 1.5;" x1="69" x2="140" y1="184" y2="184"/><path d="M104.25,87.629 C104.25,100.4459 104.25,114.7591 104.25,127.7644 " fill="none" style="stroke: #3C6DF0; stroke-width: 1.0;"/><polygon fill="none" points="111.25,127.9216,104.25,147.9216,97.2501,127.9216,111.25,127.9216" style="stroke: #3C6DF0; stroke-width: 1.0;"/></g></svg>