<?xml version="1.0" encoding="UTF-8" standalone="no"?><svg xmlns="http://www.w3.org/2000/svg" xmlns:xlink="http://www.w3.org/1999/xlink" contentScriptType="application/ecmascript" contentStyleType="text/css" height="193px" preserveAspectRatio="none" style="width:204px;height:193px;" version="1.1" viewBox="0 0 204 193" width="204px" zoomAndPan="magnify"><defs/><g><!--class ValidatedConcept--><rect fill="#F8FAFA" height="78.9219" rx="1" ry="1" style="stroke: #E3ECEC; stroke-width: 1.5;" width="197" x="6" y="8.5"/><ellipse cx="57.75" cy="22.5" fill="#FFFFFF" rx="9" ry="9" style="stroke: #E3ECEC; stroke-width: 1.0;"/><path d="M59.0313,25.7969 Q58.6875,25.9688 58.3125,26.0547 Q57.9375,26.1406 57.5156,26.1406 Q56.0469,26.1406 55.2734,25.1719 Q54.5,24.2031 54.5,22.3594 Q54.5,20.5156 55.2734,19.5469 Q56.0469,18.5781 57.5156,18.5781 Q57.9375,18.5781 58.3203,18.6641 Q58.7031,18.75 59.0313,18.9219 L59.0313,20.5313 Q58.6563,20.1875 58.3047,20.0313 Q57.9531,19.875 57.5938,19.875 Q56.7969,19.875 56.3906,20.5 Q55.9844,21.125 55.9844,22.3594 Q55.9844,23.5938 56.3906,24.2188 Q56.7969,24.8438 57.5938,24.8438 Q57.9531,24.8438 58.3047,24.6875 Q58.6563,24.5313 59.0313,24.1875 L59.0313,25.7969 Z "/><text fill="#19273C" font-family="Open Sans" font-size="10" lengthAdjust="spacingAndGlyphs" textLength="86" x="75.25" y="25.9619">ValidatedConcept</text><line style="stroke: #E3ECEC; stroke-width: 1.5;" x1="7" x2="202" y1="36.5" y2="36.5"/><line style="stroke: #E3ECEC; stroke-width: 1.5;" x1="7" x2="202" y1="44.5" y2="44.5"/><ellipse cx="16" cy="55.8203" fill="#84BE84" rx="2" ry="2" style="stroke: #038048; stroke-width: 1.0;"/><text fill="#19273C" font-family="Open Sans" font-size="10" lengthAdjust="spacingAndGlyphs" textLength="173" x="24" y="57.7822">void setPropertyValue(string,string)</text><ellipse cx="16" cy="67.4609" fill="#84BE84" rx="2" ry="2" style="stroke: #038048; stroke-width: 1.0;"/><text fill="#19273C" font-family="Open Sans" font-size="10" lengthAdjust="spacingAndGlyphs" textLength="160" x="24" y="69.4229">void addArrayValue(string,string)</text><ellipse cx="16" cy="79.1016" fill="#84BE84" rx="2" ry="2" style="stroke: #038048; stroke-width: 1.0;"/><text fill="#19273C" font-family="Open Sans" font-size="10" lengthAdjust="spacingAndGlyphs" textLength="69" x="24" y="81.0635">void validate()</text><!--class Concept--><rect fill="#F8FAFA" height="44" rx="1" ry="1" style="stroke: #E3ECEC; stroke-width: 1.5;" width="69" x="70" y="148"/><ellipse cx="83" cy="162" fill="#FFFFFF" rx="9" ry="9" style="stroke: #E3ECEC; stroke-width: 1.0;"/><path d="M84.2813,165.2969 Q83.9375,165.4688 83.5625,165.5547 Q83.1875,165.6406 82.7656,165.6406 Q81.2969,165.6406 80.5234,164.6719 Q79.75,163.7031 79.75,161.8594 Q79.75,160.0156 80.5234,159.0469 Q81.2969,158.0781 82.7656,158.0781 Q83.1875,158.0781 83.5703,158.1641 Q83.9531,158.25 84.2813,158.4219 L84.2813,160.0313 Q83.9063,159.6875 83.5547,159.5313 Q83.2031,159.375 82.8438,159.375 Q82.0469,159.375 81.6406,160 Q81.2344,160.625 81.2344,161.8594 Q81.2344,163.0938 81.6406,163.7188 Q82.0469,164.3438 82.8438,164.3438 Q83.2031,164.3438 83.5547,164.1875 Q83.9063,164.0313 84.2813,163.6875 L84.2813,165.2969 Z "/><text fill="#19273C" font-family="Open Sans" font-size="10" lengthAdjust="spacingAndGlyphs" textLength="41" x="95" y="165.4619">Concept</text><line style="stroke: #E3ECEC; stroke-width: 1.5;" x1="71" x2="138" y1="176" y2="176"/><line style="stroke: #E3ECEC; stroke-width: 1.5;" x1="71" x2="138" y1="184" y2="184"/><path d="M104.25,87.629 C104.25,100.4459 104.25,114.7591 104.25,127.7644 " fill="none" style="stroke: #3C6DF0; stroke-width: 1.0;"/><polygon fill="none" points="111.25,127.9216,104.25,147.9216,97.2501,127.9216,111.25,127.9216" style="stroke: #3C6DF0; stroke-width: 1.0;"/></g></svg>