<?xml version="1.0" encoding="UTF-8" standalone="no"?><svg xmlns="http://www.w3.org/2000/svg" xmlns:xlink="http://www.w3.org/1999/xlink" contentScriptType="application/ecmascript" contentStyleType="text/css" height="146px" preserveAspectRatio="none" style="width:173px;height:146px;" version="1.1" viewBox="0 0 173 146" width="173px" zoomAndPan="magnify"><defs/><g><!--class Wallet--><rect fill="#F8FAFA" height="137.125" rx="1" ry="1" style="stroke: #E3ECEC; stroke-width: 1.5;" width="166" x="6" y="8.5"/><ellipse cx="70.75" cy="22.5" fill="#FFFFFF" rx="9" ry="9" style="stroke: #E3ECEC; stroke-width: 1.0;"/><path d="M72.0313,25.7969 Q71.6875,25.9688 71.3125,26.0547 Q70.9375,26.1406 70.5156,26.1406 Q69.0469,26.1406 68.2734,25.1719 Q67.5,24.2031 67.5,22.3594 Q67.5,20.5156 68.2734,19.5469 Q69.0469,18.5781 70.5156,18.5781 Q70.9375,18.5781 71.3203,18.6641 Q71.7031,18.75 72.0313,18.9219 L72.0313,20.5313 Q71.6563,20.1875 71.3047,20.0313 Q70.9531,19.875 70.5938,19.875 Q69.7969,19.875 69.3906,20.5 Q68.9844,21.125 68.9844,22.3594 Q68.9844,23.5938 69.3906,24.2188 Q69.7969,24.8438 70.5938,24.8438 Q70.9531,24.8438 71.3047,24.6875 Q71.6563,24.5313 72.0313,24.1875 L72.0313,25.7969 Z "/><text fill="#19273C" font-family="Open Sans" font-size="10" lengthAdjust="spacingAndGlyphs" textLength="29" x="88.25" y="25.9619">Wallet</text><line style="stroke: #E3ECEC; stroke-width: 1.5;" x1="7" x2="171" y1="36.5" y2="36.5"/><line style="stroke: #E3ECEC; stroke-width: 1.5;" x1="7" x2="171" y1="44.5" y2="44.5"/><ellipse cx="16" cy="55.8203" fill="#84BE84" rx="2" ry="2" style="stroke: #038048; stroke-width: 1.0;"/><text fill="#19273C" font-family="Open Sans" font-size="10" lengthAdjust="spacingAndGlyphs" textLength="85" x="24" y="57.7822">Wallet getWallet()</text><ellipse cx="16" cy="67.4609" fill="#84BE84" rx="2" ry="2" style="stroke: #038048; stroke-width: 1.0;"/><text fill="#19273C" font-family="Open Sans" font-size="10" lengthAdjust="spacingAndGlyphs" textLength="104" x="24" y="69.4229">void setWallet(Wallet)</text><ellipse cx="16" cy="79.1016" fill="#84BE84" rx="2" ry="2" style="stroke: #038048; stroke-width: 1.0;"/><text fill="#19273C" font-family="Open Sans" font-size="10" lengthAdjust="spacingAndGlyphs" textLength="64" x="24" y="81.0635">Promise list()</text><ellipse cx="16" cy="90.7422" fill="#84BE84" rx="2" ry="2" style="stroke: #038048; stroke-width: 1.0;"/><text fill="#19273C" font-family="Open Sans" font-size="10" lengthAdjust="spacingAndGlyphs" textLength="118" x="24" y="92.7041">Promise contains(string)</text><ellipse cx="16" cy="102.3828" fill="#84BE84" rx="2" ry="2" style="stroke: #038048; stroke-width: 1.0;"/><text fill="#19273C" font-family="Open Sans" font-size="10" lengthAdjust="spacingAndGlyphs" textLength="94" x="24" y="104.3447">Promise get(string)</text><ellipse cx="16" cy="114.0234" fill="#84BE84" rx="2" ry="2" style="stroke: #038048; stroke-width: 1.0;"/><text fill="#19273C" font-family="Open Sans" font-size="10" lengthAdjust="spacingAndGlyphs" textLength="126" x="24" y="115.9854">Promise add(string,string)</text><ellipse cx="16" cy="125.6641" fill="#84BE84" rx="2" ry="2" style="stroke: #038048; stroke-width: 1.0;"/><text fill="#19273C" font-family="Open Sans" font-size="10" lengthAdjust="spacingAndGlyphs" textLength="142" x="24" y="127.626">Promise update(string,string)</text><ellipse cx="16" cy="137.3047" fill="#84BE84" rx="2" ry="2" style="stroke: #038048; stroke-width: 1.0;"/><text fill="#19273C" font-family="Open Sans" font-size="10" lengthAdjust="spacingAndGlyphs" textLength="116" x="24" y="139.2666">Promise remove(string)</text></g></svg>